<svg width="20" height="20" viewBox="0 0 20 20" fill="none" xmlns="http://www.w3.org/2000/svg">
<path d="M10 0C4.47749 0 0 4.47749 0 10C0 15.5231 4.47749 20 10 20C15.5231 20 20 15.5231 20 10C20 4.47749 15.5231 0 10 0ZM10 18.75C5.16752 18.75 1.25002 14.8325 1.25002 10C1.25002 5.16752 5.16752 1.25002 10 1.25002C14.8325 1.25002 18.75 5.16752 18.75 10C18.75 14.8325 14.8325 18.75 10 18.75Z" fill="#36A38D"/>
<path d="M15.625 9.36307H5.87936L9.12938 6.06619C9.37314 5.81994 9.37314 5.41996 9.12938 5.1737C8.885 4.92745 8.48938 4.92745 8.24562 5.1737L3.93375 9.54807C3.81686 9.66496 3.75 9.82934 3.75 9.99434C3.75 10.1587 3.81749 10.3231 3.93313 10.4406L8.245 14.815C8.48938 15.0619 8.885 15.0612 9.12876 14.815C9.37314 14.5681 9.37314 14.1687 9.12876 13.9219L5.87874 10.625H15.625C15.97 10.625 16.25 10.3425 16.25 9.99372C16.25 9.64558 15.97 9.36307 15.625 9.36307Z" fill="#36A38D"/>
</svg>
