<svg width="20" height="20" viewBox="0 0 20 20" fill="none" xmlns="http://www.w3.org/2000/svg">
<path d="M15.1113 9.16666C15.5962 13.6462 17.5 15 17.5 15H2.5C2.5 15 5 13.2222 5 6.99999C5 5.5855 5.52678 4.22895 6.46447 3.22876C7.40215 2.22856 8.67392 1.66666 10 1.66666C10.2811 1.66666 10.5597 1.69191 10.8333 1.74123" stroke="black" stroke-width="1.5" stroke-linecap="round" stroke-linejoin="round"/>
<path d="M15.834 6.66666C17.2147 6.66666 18.334 5.54736 18.334 4.16666C18.334 2.78595 17.2147 1.66666 15.834 1.66666C14.4532 1.66666 13.334 2.78595 13.334 4.16666C13.334 5.54736 14.4532 6.66666 15.834 6.66666Z" stroke="black" stroke-width="1.5" stroke-linecap="round" stroke-linejoin="round"/>
<path d="M11.4419 17.5C11.2954 17.7526 11.0852 17.9623 10.8321 18.1079C10.5791 18.2537 10.2923 18.3304 10.0003 18.3304C9.70826 18.3304 9.42143 18.2537 9.16843 18.1079C8.91543 17.9623 8.70509 17.7526 8.55859 17.5" stroke="black" stroke-width="1.5" stroke-linecap="round" stroke-linejoin="round"/>
</svg>
