<?xml version="1.0"?>
<svg width="20" height="20" xmlns="http://www.w3.org/2000/svg" xmlns:svg="http://www.w3.org/2000/svg">
 <g class="layer">
  <title>Layer 1</title>
  <path d="m15.11,9.17c0.49,4.48 2.39,5.83 2.39,5.83l-15,0c0,0 2.5,-1.78 2.5,-8c0,-1.41 0.53,-2.77 1.46,-3.77c0.94,-1 2.21,-1.56 3.54,-1.56c0.28,0 0.56,0.02 0.83,0.07" fill="none" id="svg_1" stroke="#ffffff" stroke-linecap="round" stroke-linejoin="round" stroke-width="1.5"/>
  <path d="m15.83,6.67c1.38,0 2.5,-1.12 2.5,-2.5c0,-1.38 -1.12,-2.5 -2.5,-2.5c-1.38,0 -2.5,1.12 -2.5,2.5c0,1.38 1.12,2.5 2.5,2.5z" fill="none" id="svg_2" stroke="#ffffff" stroke-linecap="round" stroke-linejoin="round" stroke-width="1.5"/>
  <path d="m11.44,17.5c-0.14,0.25 -0.35,0.46 -0.61,0.61c-0.25,0.14 -0.54,0.22 -0.83,0.22c-0.29,0 -0.58,-0.08 -0.83,-0.22c-0.25,-0.15 -0.46,-0.36 -0.61,-0.61" id="svg_3" stroke="#ffffff" stroke-linecap="round" stroke-linejoin="round" stroke-width="1.5"/>
 </g>
</svg>