<?xml version="1.0"?>
<svg width="24" height="24" xmlns="http://www.w3.org/2000/svg" xmlns:svg="http://www.w3.org/2000/svg">
 <g class="layer">
  <title>Layer 1</title>
  <path d="m18,8.4c0,-1.7 -0.63,-3.33 -1.76,-4.53c-1.12,-1.2 -2.65,-1.87 -4.24,-1.87c-1.59,0 -3.12,0.67 -4.24,1.87c-1.13,1.2 -1.76,2.83 -1.76,4.53c0,7.47 -3,9.6 -3,9.6l18,0c0,0 -3,-2.13 -3,-9.6z" fill="none" id="svg_1" stroke="#ffffff" stroke-linecap="round" stroke-linejoin="round" stroke-width="1.5"/>
  <path d="m13.73,21c-0.18,0.3 -0.43,0.55 -0.73,0.73c-0.31,0.17 -0.65,0.27 -1,0.27c-0.35,0 -0.7,-0.1 -1,-0.27c-0.3,-0.18 -0.55,-0.43 -0.73,-0.73" id="svg_2" stroke="#ffffff" stroke-linecap="round" stroke-linejoin="round" stroke-width="1.5"/>
 </g>
</svg>