<svg width="18" height="18" viewBox="0 0 18 18" fill="none" xmlns="http://www.w3.org/2000/svg">
<path d="M1 15.0002V6.2002C1 5.25739 1 4.78598 1.29289 4.49309C1.58579 4.2002 2.05719 4.2002 3 4.2002H15C15.9428 4.2002 16.4142 4.2002 16.7071 4.49309C17 4.78598 17 5.25739 17 6.2002V15.0002C17 15.943 17 16.4144 16.7071 16.7073C16.4142 17.0002 15.9428 17.0002 15 17.0002H3C2.05719 17.0002 1.58579 17.0002 1.29289 16.7073C1 16.4144 1 15.943 1 15.0002Z" stroke="#2F3640" stroke-width="1.2"/>
<path d="M4 1C4 1.34692 4 2.86522 4 3.83897M4 3.83897C4 3.9707 4 4.09245 4 4.2L4 3.83897Z" stroke="#2F3640" stroke-width="1.2" stroke-linecap="round"/>
<path d="M14 1C14 1.34692 14 2.86522 14 3.83897M14 3.83897C14 3.9707 14 4.09245 14 4.2L14 3.83897Z" stroke="#2F3640" stroke-width="1.2" stroke-linecap="round"/>
</svg>
