<svg width="18" height="18" viewBox="0 0 18 18" fill="none" xmlns="http://www.w3.org/2000/svg">
<path d="M1 14.9999V6.19995C1 5.25714 1 4.78574 1.29289 4.49284C1.58579 4.19995 2.05719 4.19995 3 4.19995H15C15.9428 4.19995 16.4142 4.19995 16.7071 4.49284C17 4.78574 17 5.25714 17 6.19995V15C17 15.9428 17 16.4142 16.7071 16.7071C16.4142 17 15.9428 17 15 17H3C2.05719 17 1.58579 17 1.29289 16.7071C1 16.4142 1 15.9428 1 14.9999Z" stroke="white" stroke-width="1.2"/>
<path d="M4 1C4 1.34692 4 2.86522 4 3.83897M4 3.83897C4 3.9707 4 4.09245 4 4.2L4 3.83897Z" stroke="white" stroke-width="1.2" stroke-linecap="round"/>
<path d="M14 1C14 1.34692 14 2.86522 14 3.83897M14 3.83897C14 3.9707 14 4.09245 14 4.2L14 3.83897Z" stroke="white" stroke-width="1.2" stroke-linecap="round"/>
<path d="M1 7.5H17" stroke="white" stroke-width="1.2"/>
</svg>
