<svg width="17" height="17" viewBox="0 0 17 17" fill="none" xmlns="http://www.w3.org/2000/svg">
<path d="M10.653 1.55153H12.427H15.265H15.913L15.1392 0.777719V2.55167V5.38964V6.0377C15.1392 6.44203 15.4951 6.83086 15.913 6.81151C16.3328 6.79216 16.6868 6.47103 16.6868 6.0377V4.26375V1.42578V0.777719C16.6868 0.359878 16.3328 0.00390625 15.913 0.00390625H14.1391H11.3011H10.653C10.2487 0.00390625 9.85988 0.359842 9.87923 0.777719C9.89664 1.19556 10.2178 1.55153 10.653 1.55153Z" fill="#2396E3"/>
<path d="M7.73185 10.0536C8.02203 9.76346 8.31029 9.47519 8.60046 9.18502C9.29497 8.49052 9.98947 7.79601 10.6859 7.0996C11.5274 6.25808 12.367 5.41851 13.2085 4.57699C13.9359 3.84962 14.6613 3.12417 15.3887 2.39677C15.7427 2.04274 16.1006 1.69451 16.4489 1.33663C16.4547 1.33083 16.4585 1.32696 16.4643 1.32116C16.7506 1.03484 16.7719 0.508645 16.4643 0.226217C16.1548 -0.0581605 15.6751 -0.0794382 15.3694 0.226217C15.0792 0.516396 14.7909 0.804657 14.5008 1.09483C13.8063 1.78934 13.1118 2.48384 12.4154 3.18025C11.5738 4.02177 10.7323 4.86329 9.89274 5.70481C9.16537 6.43217 8.43992 7.15763 7.71252 7.88503C7.35849 8.23906 7.00061 8.58728 6.65238 8.94516C6.64658 8.95097 6.64271 8.95484 6.63691 8.96064C6.3506 9.24695 6.32932 9.77315 6.63691 10.0556C6.94643 10.3361 7.42618 10.3593 7.73185 10.0536Z" fill="#2396E3"/>
<path d="M15.1414 9.5217V11.284V14.0195C15.1414 14.2613 15.1607 14.5147 15.1278 14.7565C15.1375 14.6888 15.1472 14.6192 15.1549 14.5515C15.1375 14.6637 15.1085 14.7701 15.0659 14.8765C15.0911 14.8146 15.1181 14.7527 15.1433 14.6908C15.0969 14.801 15.0369 14.9016 14.9653 14.9983C15.0059 14.9461 15.0466 14.8939 15.0872 14.8416C15.0137 14.9345 14.9305 15.0177 14.8376 15.0912C14.8899 15.0506 14.9421 15.01 14.9943 14.9693C14.8995 15.0409 14.797 15.1009 14.6867 15.1473C14.7486 15.1222 14.8106 15.0951 14.8725 15.0699C14.768 15.1125 14.6597 15.1415 14.5475 15.1589C14.6152 15.1492 14.6848 15.1396 14.7525 15.1318C14.5939 15.1531 14.4295 15.1454 14.2689 15.1454H13.3713H10.3766H6.73589H3.60194C3.11056 15.1454 2.61921 15.1492 2.12977 15.1454C2.064 15.1454 1.99822 15.1415 1.93245 15.1318C2.00016 15.1415 2.0698 15.1512 2.13751 15.1589C2.02531 15.1415 1.91891 15.1125 1.81251 15.0699C1.87442 15.0951 1.93632 15.1222 1.99823 15.1473C1.88796 15.1009 1.78736 15.0409 1.69064 14.9693C1.74287 15.01 1.7951 15.0506 1.84733 15.0912C1.75448 15.0177 1.67129 14.9345 1.59778 14.8416C1.6384 14.8939 1.67903 14.9461 1.71965 14.9983C1.64808 14.9036 1.5881 14.801 1.54168 14.6908C1.56683 14.7527 1.59391 14.8146 1.61906 14.8765C1.5765 14.772 1.54748 14.6637 1.53007 14.5515C1.53975 14.6192 1.54942 14.6888 1.55716 14.7565C1.53588 14.5979 1.54361 14.4335 1.54361 14.2729V13.3753V10.3806V6.7399V3.60596C1.54361 3.11457 1.53974 2.62322 1.54361 2.13378C1.54361 2.06801 1.54748 2.00223 1.55716 1.93646C1.54748 2.00417 1.53781 2.07381 1.53007 2.14152C1.54748 2.02932 1.5765 1.92292 1.61906 1.81652C1.59391 1.87843 1.56683 1.94033 1.54168 2.00224C1.58811 1.89197 1.64808 1.79137 1.71965 1.69465C1.67903 1.74688 1.6384 1.79911 1.59778 1.85134C1.67129 1.75849 1.75448 1.6753 1.84733 1.60179C1.7951 1.64241 1.74287 1.68304 1.69064 1.72366C1.78543 1.65209 1.88796 1.59211 1.99823 1.54569C1.93632 1.57084 1.87442 1.59792 1.81251 1.62307C1.91697 1.58051 2.02531 1.55149 2.13751 1.53408C2.0698 1.54376 2.00016 1.55343 1.93245 1.56117C2.13751 1.53408 2.35029 1.54763 2.55536 1.54763H3.75285H6.52502H7.16728C7.57161 1.54763 7.96044 1.19169 7.94109 0.773813C7.92175 0.354026 7.60061 0 7.16728 0H5.5887H2.95194H2.19358C1.59969 0 1.02319 0.206996 0.60535 0.640345C0.212624 1.04853 0.00179358 1.58827 0.00179358 2.15316V2.50525V4.15153V6.62387V9.41154V12.0038V13.8919C0.00179358 14.2575 -0.0136828 14.6232 0.0462873 14.9849C0.113997 15.3931 0.346141 15.7974 0.642132 16.0818C0.793024 16.2269 0.971003 16.3623 1.16252 16.4532C1.43142 16.579 1.66742 16.6447 1.96149 16.6757C2.07175 16.6873 2.18009 16.6854 2.29036 16.6854H3.65612H5.9737H8.73042H11.4097H13.5242H14.5398C15.1202 16.6834 15.7024 16.4571 16.101 16.0276C16.2403 15.8767 16.3737 15.7026 16.4608 15.515C16.5846 15.2461 16.6465 15.0197 16.6794 14.7276C16.6891 14.6444 16.6891 14.5612 16.6891 14.4781V12.4294V9.94544V9.51985C16.6891 9.11553 16.3331 8.72669 15.9153 8.74604C15.4955 8.76539 15.1414 9.08652 15.1414 9.5218L15.1414 9.5217Z" fill="#2396E3"/>
</svg>
