<svg width="15" height="17" viewBox="0 0 15 17" fill="none" xmlns="http://www.w3.org/2000/svg">
<path d="M1 12V9C1 7.11438 1 6.17157 1.58579 5.58579C2.17157 5 3.11438 5 5 5H10C11.8856 5 12.8284 5 13.4142 5.58579C14 6.17157 14 7.11438 14 9V12C14 13.8856 14 14.8284 13.4142 15.4142C12.8284 16 11.8856 16 10 16H5C3.11438 16 2.17157 16 1.58579 15.4142C1 14.8284 1 13.8856 1 12Z" stroke="#A9A9A9"/>
<path d="M5 4.80952V3C5 2.05719 5 1.58579 5.29289 1.29289C5.58579 1 6.05719 1 7 1H8C8.94281 1 9.41421 1 9.70711 1.29289C10 1.58579 10 2.05719 10 3V4.42857V5" stroke="#A9A9A9" stroke-width="0.9"/>
</svg>
