<svg width="15" height="15" viewBox="0 0 15 15" fill="none" xmlns="http://www.w3.org/2000/svg">
<path d="M6.54186 2.025H7.34316H9.24951H11.5542H13.5597C13.8818 2.025 14.2054 2.03102 14.5274 2.025H14.5411C14.7808 2.025 15.0097 1.81738 14.999 1.57367C14.9883 1.32844 14.7975 1.12234 14.5411 1.12234H13.7398H11.8335H9.5288H7.52327C7.20122 1.12234 6.87764 1.11632 6.55559 1.12234H6.54186C6.30223 1.12234 6.07329 1.32996 6.08398 1.57367C6.09466 1.8189 6.28545 2.025 6.54186 2.025Z" fill="#36A38D"/>
<path d="M2.08532 2.02501H3.74288H3.97793C4.21755 2.02501 4.44649 1.8174 4.43581 1.57368C4.42512 1.32845 4.23433 1.12235 3.97793 1.12235H2.32036H2.08532C1.84569 1.12235 1.61675 1.32997 1.62744 1.57368C1.63812 1.81891 1.82891 2.02501 2.08532 2.02501Z" fill="#36A38D"/>
<path d="M6.54613 1.57079C6.54613 2.27123 5.97005 2.83906 5.25945 2.83906C4.54885 2.83906 3.97278 2.27123 3.97278 1.57079C3.97278 0.870363 4.54885 0.302528 5.25945 0.302528C5.97005 0.302528 6.54613 0.870363 6.54613 1.57079Z" fill="#36A38D"/>
<path d="M5.26025 2.53808C5.2282 2.53808 5.19615 2.53657 5.1641 2.53507C5.15494 2.53507 5.11526 2.53657 5.1122 2.53056C5.1122 2.53056 5.19004 2.5441 5.13052 2.53206C5.06947 2.52153 5.00994 2.50799 4.95042 2.48994C4.93363 2.48392 4.86494 2.47038 4.85426 2.45533C4.85579 2.45684 4.92294 2.48693 4.87105 2.46135L4.83442 2.4433C4.77795 2.41471 4.72453 2.38162 4.6711 2.34701C4.66805 2.34551 4.665 2.3425 4.66347 2.341C4.63753 2.32144 4.64211 2.32595 4.67721 2.35303C4.67263 2.35303 4.64821 2.32896 4.64668 2.32746C4.62684 2.31091 4.607 2.29285 4.58716 2.2748C4.56579 2.25374 4.54442 2.23268 4.52458 2.21161C4.5139 2.19958 4.50169 2.18754 4.491 2.174C4.48337 2.16497 4.45437 2.11834 4.47726 2.15895C4.50169 2.20258 4.46963 2.14842 4.46505 2.14241C4.45742 2.13187 4.44979 2.12134 4.44216 2.10931C4.4269 2.08674 4.41316 2.06418 4.40095 2.04161C4.38416 2.01302 4.37042 1.98294 4.35516 1.95284C4.33685 1.91674 4.346 1.95886 4.36127 1.96939C4.35058 1.96187 4.34295 1.92426 4.3399 1.91373C4.32006 1.85957 4.30479 1.8039 4.29258 1.74824C4.28953 1.7347 4.28648 1.72116 4.28495 1.70762C4.2758 1.65196 4.26969 1.70461 4.28495 1.71665C4.27274 1.70612 4.27732 1.63089 4.27732 1.61284C4.2758 1.55266 4.28037 1.49399 4.28343 1.43381C4.28648 1.38868 4.26816 1.51054 4.2819 1.44284C4.28495 1.4293 4.28648 1.41576 4.28953 1.40222C4.29564 1.36912 4.30479 1.33602 4.31395 1.30292C4.32158 1.27735 4.32922 1.25177 4.33837 1.22619C4.34448 1.21115 4.35058 1.1946 4.35669 1.17956C4.37043 1.13893 4.32311 1.24725 4.35364 1.18708C4.38111 1.13442 4.40858 1.08177 4.44063 1.03061C4.44827 1.02008 4.4559 1.00805 4.46353 0.997517C4.46811 0.9915 4.49863 0.937339 4.47574 0.980968C4.45285 1.02309 4.48337 0.971942 4.48948 0.965924C4.49863 0.955393 4.50627 0.946366 4.51542 0.935833C4.55511 0.892205 4.59784 0.850079 4.64363 0.812467C4.65126 0.80645 4.70163 0.77636 4.6589 0.798927C4.62074 0.81999 4.65737 0.800432 4.66805 0.792909C4.69247 0.77636 4.71842 0.759812 4.74284 0.744767C4.76574 0.731227 4.78863 0.717687 4.81305 0.70565C4.82831 0.698128 4.84358 0.690606 4.85884 0.683084C4.868 0.67857 4.87715 0.674057 4.88631 0.671048C4.84815 0.686093 4.839 0.690606 4.86036 0.681579C4.91531 0.663526 4.96873 0.642463 5.0252 0.628922C5.05573 0.6214 5.08625 0.615382 5.11678 0.609364C5.13052 0.60786 5.17325 0.606355 5.12746 0.60786C5.07557 0.60786 5.14883 0.606355 5.15951 0.606355C5.22057 0.601842 5.28009 0.601842 5.34114 0.604851C5.35946 0.606355 5.37625 0.60786 5.39304 0.609364C5.43577 0.612373 5.33198 0.598833 5.37472 0.606355C5.41288 0.613877 5.44951 0.619895 5.48614 0.628922C5.53956 0.642462 5.58993 0.659012 5.64182 0.677064C5.70593 0.699631 5.59756 0.651489 5.63419 0.674055C5.64793 0.683082 5.66472 0.687595 5.67998 0.695117C5.7105 0.710162 5.7395 0.72671 5.7685 0.74326C5.7914 0.7568 5.81429 0.771846 5.83566 0.786888C5.83566 0.786888 5.86771 0.806446 5.86771 0.809455C5.86618 0.79441 5.81887 0.768834 5.8616 0.804942C5.90892 0.845563 5.95623 0.887686 5.99744 0.934324C6.00965 0.947864 6.04781 0.977952 6.04934 0.994502C6.04171 0.983971 6.03408 0.974944 6.02644 0.964412C6.03255 0.971934 6.03865 0.98096 6.04476 0.988483C6.05239 0.999014 6.06002 1.00955 6.06765 1.02158C6.10276 1.07424 6.13176 1.1299 6.16076 1.18556C6.1867 1.23672 6.15618 1.16902 6.15465 1.16902C6.16228 1.17503 6.16991 1.20512 6.17297 1.21565C6.18365 1.24424 6.19281 1.27282 6.20197 1.30141C6.2096 1.32698 6.2157 1.35406 6.22181 1.37964C6.22486 1.39318 6.22791 1.40672 6.22944 1.42026C6.23249 1.4338 6.23402 1.44734 6.23555 1.46088C6.23402 1.44734 6.23249 1.43531 6.22944 1.42177C6.22181 1.48044 6.2386 1.54964 6.23707 1.60982C6.23555 1.63841 6.23249 1.66549 6.23097 1.69407C6.22639 1.76328 6.24165 1.64141 6.23249 1.68655C6.22944 1.7031 6.22639 1.71965 6.22334 1.7377C6.2096 1.80691 6.18823 1.87461 6.16381 1.9408C6.15923 1.95434 6.13634 1.98443 6.16076 1.95133C6.18823 1.91222 6.1516 1.96788 6.14702 1.97841C6.13176 2.0085 6.11649 2.03709 6.09818 2.06567C6.07987 2.09727 6.0585 2.12585 6.03713 2.15594C6.01423 2.19054 6.04781 2.15744 6.04934 2.1424C6.04934 2.15443 6.01729 2.18001 6.01118 2.18753C5.96692 2.23718 5.91961 2.28382 5.86924 2.32594C5.86313 2.33045 5.84329 2.35001 5.83871 2.35152C5.87229 2.32744 5.8784 2.32142 5.86008 2.33497C5.85245 2.34098 5.84329 2.347 5.83566 2.35152C5.80818 2.36957 5.78071 2.38762 5.75171 2.40417C5.72271 2.42072 5.69371 2.43576 5.66319 2.45081C5.66471 2.45081 5.62961 2.46886 5.62656 2.46736C5.66929 2.45081 5.67387 2.4478 5.64335 2.45984C5.63724 2.46285 5.63113 2.46435 5.62503 2.46736C5.56092 2.49143 5.4953 2.50948 5.42814 2.52302C5.41135 2.52603 5.39456 2.52904 5.37624 2.53205C5.35335 2.53506 5.36251 2.53506 5.40524 2.52754C5.39456 2.52904 5.38388 2.53054 5.37319 2.53054C5.33809 2.53656 5.29993 2.53807 5.26025 2.53807C5.09999 2.53957 4.94736 2.67497 4.95498 2.83897C4.96261 3.00145 5.08929 3.14136 5.26025 3.13988C5.93641 3.13386 6.52554 2.7141 6.76059 2.09279C6.98496 1.50003 6.78654 0.776381 6.28898 0.374708C6.02188 0.159571 5.71204 0.0331983 5.36558 0.00461539C5.04657 -0.0209604 4.7108 0.061784 4.43759 0.224266C3.85761 0.5718 3.57067 1.24428 3.70193 1.89721C3.84693 2.61634 4.52461 3.13235 5.25874 3.13837C5.419 3.13988 5.57163 2.99846 5.56401 2.83747C5.55791 2.67499 5.43123 2.53959 5.26028 2.53808L5.26025 2.53808Z" fill="#36A38D"/>
<path d="M12.495 7.17052H14.2884H14.5402C14.7798 7.17052 15.0088 6.9629 14.9981 6.71919C14.9874 6.47396 14.7966 6.26786 14.5402 6.26786H12.7468H12.495C12.2554 6.26786 12.0264 6.47548 12.0371 6.71919C12.0478 6.96442 12.2386 7.17052 12.495 7.17052Z" fill="#36A38D"/>
<path d="M2.08532 7.17051H2.86982H4.73801H7.00455H8.96431C9.28178 7.17051 9.59925 7.17653 9.91672 7.17051H9.93046C10.1701 7.17051 10.399 6.96289 10.3883 6.71918C10.3777 6.47395 10.1869 6.26785 9.93046 6.26785H9.14595H7.27776H5.01122H3.05146C2.73399 6.26785 2.41652 6.26183 2.09905 6.26785H2.08532C1.84569 6.26785 1.61675 6.47546 1.62744 6.71918C1.63812 6.96441 1.82891 7.17051 2.08532 7.17051Z" fill="#36A38D"/>
<path d="M12.4993 6.71606C12.4993 7.41649 11.9232 7.98432 11.2126 7.98432C10.502 7.98432 9.9259 7.41649 9.9259 6.71606C9.9259 6.01563 10.502 5.44779 11.2126 5.44779C11.9232 5.44779 12.4993 6.01563 12.4993 6.71606Z" fill="#36A38D"/>
<path d="M11.2124 7.68334C11.1804 7.68334 11.1483 7.68184 11.1162 7.68033C11.1071 7.68033 11.0674 7.68184 11.0644 7.67582C11.0644 7.67582 11.1422 7.68936 11.0827 7.67732C11.0216 7.66679 10.9621 7.65325 10.9026 7.6352C10.8858 7.62918 10.8171 7.61564 10.8064 7.6006C10.8079 7.6021 10.8751 7.63219 10.8232 7.60662L10.7866 7.58856C10.7301 7.55998 10.6767 7.52688 10.6233 7.49228C10.6202 7.49077 10.6171 7.48776 10.6156 7.48626C10.5897 7.4667 10.5943 7.47121 10.6294 7.49829C10.6248 7.49829 10.6004 7.47422 10.5988 7.47272C10.579 7.45617 10.5591 7.43812 10.5393 7.42006C10.5179 7.399 10.4966 7.37794 10.4767 7.35687C10.466 7.34484 10.4538 7.3328 10.4431 7.31926C10.4355 7.31024 10.4065 7.2636 10.4294 7.30422C10.4538 7.34785 10.4218 7.29369 10.4172 7.28767C10.4096 7.27714 10.4019 7.26661 10.3943 7.25457C10.379 7.232 10.3653 7.20944 10.3531 7.18687C10.3363 7.15829 10.3226 7.1282 10.3073 7.09811C10.289 7.062 10.2982 7.10413 10.3134 7.11466C10.3027 7.10714 10.2951 7.06953 10.292 7.05899C10.2722 7.00483 10.2569 6.94917 10.2447 6.8935C10.2417 6.87996 10.2386 6.86642 10.2371 6.85288C10.2279 6.79722 10.2218 6.84987 10.2371 6.86191C10.2249 6.85138 10.2295 6.77616 10.2295 6.7581C10.2279 6.69793 10.2325 6.63925 10.2356 6.57907C10.2386 6.53394 10.2203 6.6558 10.234 6.5881C10.2371 6.57456 10.2386 6.56102 10.2417 6.54748C10.2478 6.51438 10.2569 6.48129 10.2661 6.44819C10.2737 6.42261 10.2814 6.39703 10.2905 6.37146C10.2966 6.35641 10.3027 6.33986 10.3088 6.32482C10.3226 6.2842 10.2753 6.39252 10.3058 6.33234C10.3333 6.27968 10.3607 6.22703 10.3928 6.17588C10.4004 6.16535 10.408 6.15331 10.4157 6.14278C10.4203 6.13676 10.4508 6.0826 10.4279 6.12623C10.405 6.16836 10.4355 6.11721 10.4416 6.11119C10.4508 6.10066 10.4584 6.09163 10.4676 6.0811C10.5073 6.03747 10.55 5.99534 10.5958 5.95773C10.6034 5.95171 10.6538 5.92162 10.611 5.94419C10.5729 5.96525 10.6095 5.9457 10.6202 5.93817C10.6446 5.92162 10.6706 5.90508 10.695 5.89003C10.7179 5.87649 10.7408 5.86295 10.7652 5.85091C10.7805 5.84339 10.7957 5.83587 10.811 5.82835C10.8201 5.82383 10.8293 5.81932 10.8385 5.81631C10.8003 5.83136 10.7911 5.83587 10.8125 5.82684C10.8675 5.80879 10.9209 5.78773 10.9774 5.77419C11.0079 5.76666 11.0384 5.76065 11.0689 5.75463C11.0827 5.75312 11.1254 5.75162 11.0796 5.75312C11.0277 5.75312 11.101 5.75162 11.1117 5.75162C11.1727 5.74711 11.2322 5.74711 11.2933 5.75011C11.3116 5.75162 11.3284 5.75312 11.3452 5.75463C11.3879 5.75764 11.2841 5.7441 11.3269 5.75162C11.365 5.75914 11.4017 5.76516 11.4383 5.77419C11.4917 5.78773 11.5421 5.80428 11.594 5.82233C11.6581 5.84489 11.5497 5.79675 11.5863 5.81932C11.6001 5.82835 11.6169 5.83286 11.6321 5.84038C11.6627 5.85543 11.6917 5.87197 11.7207 5.88852C11.7435 5.90206 11.7664 5.91711 11.7878 5.93215C11.7878 5.93215 11.8199 5.95171 11.8199 5.95472C11.8183 5.93967 11.771 5.9141 11.8138 5.95021C11.8611 5.99083 11.9084 6.03295 11.9496 6.07959C11.9618 6.09313 12 6.12322 12.0015 6.13977C11.9939 6.12923 11.9862 6.12021 11.9786 6.10968C11.9847 6.1172 11.9908 6.12622 11.9969 6.13375C12.0045 6.14428 12.0122 6.15481 12.0198 6.16684C12.0549 6.2195 12.0839 6.27516 12.1129 6.33083C12.1389 6.38198 12.1083 6.31428 12.1068 6.31428C12.1144 6.3203 12.1221 6.35039 12.1251 6.36092C12.1358 6.3895 12.145 6.41809 12.1541 6.44667C12.1617 6.47225 12.1679 6.49933 12.174 6.5249C12.177 6.53844 12.1801 6.55198 12.1816 6.56553C12.1846 6.57907 12.1862 6.59261 12.1877 6.60615C12.1862 6.59261 12.1846 6.58057 12.1816 6.56703C12.174 6.6257 12.1907 6.69491 12.1892 6.75509C12.1877 6.78367 12.1846 6.81075 12.1831 6.83934C12.1785 6.90854 12.1938 6.78668 12.1846 6.83181C12.1816 6.84836 12.1785 6.86491 12.1755 6.88296C12.1617 6.95217 12.1404 7.01987 12.116 7.08607C12.1114 7.09961 12.0885 7.12969 12.1129 7.0966C12.1404 7.05748 12.1037 7.11315 12.0992 7.12368C12.0839 7.15377 12.0686 7.18235 12.0503 7.21094C12.032 7.24253 12.0106 7.27111 11.9893 7.3012C11.9664 7.3358 12 7.30271 12.0015 7.28766C12.0015 7.2997 11.9694 7.32527 11.9633 7.33279C11.9191 7.38244 11.8718 7.42908 11.8214 7.4712C11.8153 7.47572 11.7954 7.49527 11.7909 7.49678C11.8244 7.47271 11.8305 7.46669 11.8122 7.48023C11.8046 7.48625 11.7954 7.49227 11.7878 7.49678C11.7603 7.51483 11.7329 7.53289 11.7039 7.54944C11.6749 7.56598 11.6459 7.58103 11.6153 7.59607C11.6169 7.59607 11.5818 7.61413 11.5787 7.61262C11.6214 7.59607 11.626 7.59306 11.5955 7.6051C11.5894 7.60811 11.5833 7.60961 11.5772 7.61262C11.5131 7.63669 11.4474 7.65475 11.3803 7.66829C11.3635 7.6713 11.3467 7.6743 11.3284 7.67731C11.3055 7.68032 11.3147 7.68032 11.3574 7.6728C11.3467 7.6743 11.336 7.67581 11.3253 7.67581C11.2902 7.68183 11.2521 7.68333 11.2124 7.68333C11.0521 7.68484 10.8995 7.82024 10.9071 7.98424C10.9148 8.14672 11.0414 8.28663 11.2124 8.28514C11.8886 8.27912 12.4777 7.85937 12.7127 7.23805C12.9371 6.6453 12.7387 5.92164 12.2411 5.51997C11.974 5.30483 11.6642 5.17846 11.3177 5.14988C10.9987 5.1243 10.6629 5.20705 10.3897 5.36953C9.80976 5.71706 9.52282 6.38955 9.65408 7.04247C9.79908 7.76161 10.4768 8.27761 11.2109 8.28364C11.3711 8.28514 11.5238 8.14372 11.5162 7.98273C11.5101 7.82025 11.3834 7.68485 11.2124 7.68334L11.2124 7.68334Z" fill="#36A38D"/>
<path d="M8.98424 12.3158H9.53523H10.8601H12.4642H13.8516C14.0775 12.3158 14.3034 12.3203 14.5293 12.3158H14.5399C14.7796 12.3158 15.0085 12.1082 14.9978 11.8645C14.9871 11.6193 14.7964 11.4132 14.5399 11.4132H13.989H12.6641H11.06H9.67259C9.4467 11.4132 9.2208 11.4087 8.99493 11.4132H8.98424C8.74461 11.4132 8.51567 11.6208 8.52636 11.8645C8.53705 12.1097 8.72783 12.3158 8.98424 12.3158Z" fill="#36A38D"/>
<path d="M2.08532 12.3158H3.54751H5.88578H6.41999C6.65962 12.3158 6.88856 12.1082 6.87787 11.8645C6.86719 11.6192 6.6764 11.4131 6.41999 11.4131H4.9578H2.61953H2.08532C1.84569 11.4131 1.61675 11.6207 1.62744 11.8645C1.63812 12.1097 1.82891 12.3158 2.08532 12.3158Z" fill="#36A38D"/>
<path d="M8.98888 11.8612C8.98888 12.5616 8.4128 13.1294 7.7022 13.1294C6.9916 13.1294 6.41553 12.5616 6.41553 11.8612C6.41553 11.1607 6.9916 10.5929 7.7022 10.5929C8.4128 10.5929 8.98888 11.1607 8.98888 11.8612Z" fill="#36A38D"/>
<path d="M7.70154 12.8287C7.66949 12.8287 7.63743 12.8272 7.60538 12.8257C7.59622 12.8257 7.55654 12.8272 7.55349 12.8212C7.55349 12.8212 7.63133 12.8347 7.5718 12.8227C7.51075 12.8121 7.45123 12.7986 7.3917 12.7805C7.37491 12.7745 7.30623 12.761 7.29554 12.7459C7.29707 12.7475 7.36423 12.7775 7.31233 12.752L7.2757 12.7339C7.21923 12.7053 7.16581 12.6722 7.11239 12.6376C7.10934 12.6361 7.10628 12.6331 7.10476 12.6316C7.07881 12.612 7.08339 12.6166 7.11849 12.6436C7.11391 12.6436 7.08949 12.6196 7.08797 12.6181C7.06813 12.6015 7.04828 12.5835 7.02844 12.5654C7.00707 12.5443 6.98571 12.5233 6.96586 12.5022C6.95518 12.4902 6.94297 12.4782 6.93229 12.4646C6.92465 12.4556 6.89565 12.4089 6.91855 12.4496C6.94297 12.4932 6.91092 12.439 6.90634 12.433C6.89871 12.4225 6.89108 12.412 6.88344 12.3999C6.86818 12.3774 6.85444 12.3548 6.84223 12.3322C6.82544 12.3036 6.81171 12.2735 6.79645 12.2435C6.77813 12.2073 6.78729 12.2495 6.80255 12.26C6.79187 12.2525 6.78424 12.2149 6.78118 12.2043C6.76134 12.1502 6.74608 12.0945 6.73387 12.0389C6.73082 12.0253 6.72776 12.0118 6.72624 11.9982C6.71708 11.9426 6.71097 11.9952 6.72624 12.0073C6.71403 11.9967 6.71861 11.9215 6.71861 11.9035C6.71708 11.8433 6.72166 11.7846 6.72471 11.7244C6.72776 11.6793 6.70945 11.8012 6.72318 11.7334C6.72624 11.7199 6.72776 11.7064 6.73082 11.6928C6.73692 11.6597 6.74608 11.6266 6.75524 11.5935C6.76287 11.568 6.7705 11.5424 6.77966 11.5168C6.78576 11.5018 6.79187 11.4852 6.79797 11.4702C6.81171 11.4295 6.7644 11.5379 6.79492 11.4777C6.82239 11.425 6.84987 11.3724 6.88192 11.3212C6.88955 11.3107 6.89718 11.2987 6.90481 11.2881C6.90939 11.2821 6.93992 11.228 6.91702 11.2716C6.89413 11.3137 6.92466 11.2626 6.93076 11.2565C6.93992 11.246 6.94755 11.237 6.95671 11.2264C6.99639 11.1828 7.03913 11.1407 7.08492 11.1031C7.09255 11.0971 7.14292 11.067 7.10018 11.0895C7.06202 11.1106 7.09865 11.091 7.10934 11.0835C7.13376 11.067 7.15971 11.0504 7.18413 11.0354C7.20702 11.0218 7.22991 11.0083 7.25433 10.9963C7.2696 10.9887 7.28486 10.9812 7.30012 10.9737C7.30928 10.9692 7.31844 10.9647 7.3276 10.9617C7.28944 10.9767 7.28028 10.9812 7.30165 10.9722C7.3566 10.9541 7.41002 10.9331 7.46649 10.9195C7.49701 10.912 7.52754 10.906 7.55806 10.9C7.5718 10.8985 7.61453 10.897 7.56875 10.8985C7.51685 10.8985 7.59011 10.897 7.6008 10.897C7.66185 10.8925 7.72137 10.8925 7.78243 10.8955C7.80074 10.897 7.81753 10.8985 7.83432 10.9C7.87705 10.903 7.77327 10.8894 7.816 10.897C7.85416 10.9045 7.89079 10.9105 7.92742 10.9195C7.98085 10.9331 8.03121 10.9496 8.08311 10.9677C8.14721 10.9902 8.03884 10.9421 8.07547 10.9647C8.08921 10.9737 8.106 10.9782 8.12126 10.9857C8.15179 11.0008 8.18079 11.0173 8.20979 11.0339C8.23268 11.0474 8.25557 11.0625 8.27694 11.0775C8.27694 11.0775 8.30899 11.0971 8.30899 11.1001C8.30747 11.085 8.26015 11.0594 8.30289 11.0956C8.3502 11.1362 8.39752 11.1783 8.43873 11.2249C8.45094 11.2385 8.4891 11.2686 8.49062 11.2851C8.48299 11.2746 8.47536 11.2656 8.46773 11.255C8.47383 11.2625 8.47994 11.2716 8.48604 11.2791C8.49368 11.2896 8.50131 11.3002 8.50894 11.3122C8.54404 11.3648 8.57304 11.4205 8.60204 11.4762C8.62799 11.5273 8.59746 11.4596 8.59594 11.4596C8.60357 11.4656 8.6112 11.4957 8.61425 11.5063C8.62494 11.5349 8.63409 11.5634 8.64325 11.592C8.65088 11.6176 8.65699 11.6447 8.66309 11.6703C8.66615 11.6838 8.6692 11.6973 8.67072 11.7109C8.67378 11.7244 8.6753 11.738 8.67683 11.7515C8.6753 11.738 8.67378 11.7259 8.67072 11.7124C8.66309 11.7711 8.67988 11.8403 8.67836 11.9004C8.67683 11.929 8.67378 11.9561 8.67225 11.9847C8.66767 12.0539 8.68294 11.932 8.67378 11.9772C8.67073 11.9937 8.66767 12.0103 8.66462 12.0283C8.65088 12.0975 8.62952 12.1652 8.6051 12.2314C8.60052 12.245 8.57762 12.275 8.60204 12.2419C8.62952 12.2028 8.59289 12.2585 8.58831 12.269C8.57304 12.2991 8.55778 12.3277 8.53946 12.3563C8.52115 12.3879 8.49978 12.4165 8.47841 12.4466C8.45552 12.4812 8.4891 12.4481 8.49062 12.433C8.49062 12.445 8.45857 12.4706 8.45247 12.4781C8.40821 12.5278 8.36089 12.5744 8.31052 12.6166C8.30442 12.6211 8.28457 12.6406 8.27999 12.6421C8.31357 12.6181 8.31968 12.612 8.30136 12.6256C8.29373 12.6316 8.28457 12.6376 8.27694 12.6421C8.24947 12.6602 8.22199 12.6782 8.193 12.6948C8.164 12.7113 8.135 12.7264 8.10447 12.7414C8.106 12.7414 8.07089 12.7595 8.06784 12.758C8.11058 12.7414 8.11516 12.7384 8.08463 12.7504C8.07852 12.7535 8.07242 12.755 8.06631 12.758C8.00221 12.782 7.93658 12.8001 7.86942 12.8136C7.85263 12.8166 7.83584 12.8197 7.81753 12.8227C7.79463 12.8257 7.80379 12.8257 7.84653 12.8181C7.83584 12.8197 7.82516 12.8212 7.81448 12.8212C7.77937 12.8272 7.74122 12.8287 7.70153 12.8287C7.54127 12.8302 7.38864 12.9656 7.39626 13.1296C7.40389 13.2921 7.53057 13.432 7.70153 13.4305C8.37769 13.4245 8.96683 13.0047 9.20188 12.3834C9.42624 11.7906 9.22783 11.067 8.73027 10.6653C8.46317 10.4502 8.15333 10.3238 7.80686 10.2952C7.48786 10.2697 7.15208 10.3524 6.87888 10.5149C6.29889 10.8624 6.01196 11.5349 6.14322 12.1878C6.28821 12.907 6.9659 13.423 7.70002 13.429C7.86029 13.4305 8.01292 13.2891 8.0053 13.1281C7.99919 12.9656 7.87251 12.8302 7.70156 12.8287L7.70154 12.8287Z" fill="#36A38D"/>
<path d="M0.628943 14.6415C0.626364 14.643 0.62357 14.6439 0.620776 14.6445C0.618197 14.645 0.615295 14.6453 0.612179 14.6453C0.602937 14.6453 0.59563 14.643 0.590257 14.638C0.585099 14.6329 0.58252 14.6259 0.58252 14.617C0.58252 14.6084 0.585099 14.6015 0.590257 14.5963C0.59563 14.5912 0.602937 14.5886 0.612179 14.5886C0.615295 14.5886 0.618197 14.589 0.620776 14.5899C0.62357 14.5905 0.626364 14.5915 0.628943 14.5929V14.6041C0.626364 14.6023 0.623785 14.6011 0.621206 14.6002C0.618627 14.5993 0.615833 14.5989 0.613039 14.5989C0.608095 14.5989 0.604227 14.6006 0.601433 14.6041C0.598531 14.6073 0.597134 14.6116 0.597134 14.617C0.597134 14.6228 0.598531 14.6273 0.601433 14.6307C0.604227 14.6339 0.608095 14.6354 0.613039 14.6354C0.615833 14.6354 0.618626 14.635 0.621206 14.6342C0.623785 14.6333 0.626364 14.632 0.628943 14.6303V14.6415Z" fill="#36A38D"/>
<path d="M0.672243 14.6144C0.671061 14.6138 0.669879 14.6135 0.668804 14.6135C0.667622 14.6133 0.66644 14.6131 0.665365 14.6131C0.661926 14.6131 0.659133 14.6143 0.657198 14.6165C0.655479 14.6186 0.654619 14.6216 0.654619 14.6256V14.6445H0.641724V14.6032H0.654619V14.6101C0.656338 14.6075 0.658165 14.6057 0.660207 14.6045C0.662463 14.6031 0.66515 14.6023 0.668374 14.6023H0.669663C0.670201 14.6023 0.67106 14.6026 0.672243 14.6028L0.672243 14.6144Z" fill="#36A38D"/>
<path d="M0.720236 14.6238V14.6277H0.689717C0.689932 14.6306 0.691006 14.6329 0.692726 14.6346C0.69466 14.6361 0.697454 14.6367 0.700893 14.6367C0.703687 14.6367 0.706588 14.6363 0.70949 14.6354C0.712284 14.6346 0.715293 14.6335 0.718516 14.632V14.6419C0.715292 14.6431 0.712176 14.6439 0.70906 14.6445C0.705836 14.645 0.70272 14.6453 0.699603 14.6453C0.692081 14.6453 0.686385 14.6435 0.682409 14.6397C0.678326 14.6361 0.676392 14.6307 0.676392 14.6238C0.676392 14.6173 0.678326 14.6121 0.682409 14.6084C0.686385 14.6044 0.691974 14.6023 0.699173 14.6023C0.705406 14.6023 0.710457 14.6044 0.714218 14.6084C0.718194 14.6121 0.720236 14.6173 0.720236 14.6238L0.720236 14.6238ZM0.706911 14.6195C0.706911 14.617 0.706159 14.615 0.704762 14.6135C0.703257 14.6118 0.701323 14.6109 0.698744 14.6109C0.69638 14.6109 0.694445 14.6117 0.692726 14.6131C0.691007 14.6146 0.689932 14.6167 0.689717 14.6195L0.706911 14.6195Z" fill="#36A38D"/>
<path d="M0.749153 14.626C0.746252 14.626 0.744103 14.6264 0.742706 14.6273C0.741201 14.6281 0.740556 14.6296 0.740556 14.6316C0.740556 14.6333 0.741094 14.6346 0.742276 14.6354C0.74335 14.6363 0.744962 14.6367 0.747004 14.6367C0.749583 14.6367 0.751517 14.6359 0.753022 14.6341C0.754741 14.6324 0.755601 14.6302 0.755601 14.6273V14.626L0.749153 14.626ZM0.768926 14.6208V14.6445H0.755601V14.6384C0.753881 14.641 0.75184 14.643 0.749583 14.644C0.747541 14.6449 0.744962 14.6453 0.741846 14.6453C0.737547 14.6453 0.734109 14.6443 0.73153 14.6419C0.728951 14.6393 0.727661 14.6361 0.727661 14.632C0.727661 14.6272 0.729166 14.6237 0.73239 14.6217C0.735828 14.6194 0.740986 14.6182 0.747864 14.6182H0.755601V14.617C0.755601 14.615 0.754741 14.6135 0.753022 14.6127C0.751518 14.6116 0.749154 14.6109 0.745715 14.6109C0.742813 14.6109 0.740127 14.6113 0.737548 14.6118C0.735184 14.6124 0.733034 14.6133 0.7311 14.6144V14.6045C0.733894 14.6036 0.736795 14.6031 0.739697 14.6028C0.742491 14.6026 0.745285 14.6023 0.747864 14.6023C0.755279 14.6023 0.760544 14.6038 0.763768 14.6066C0.767207 14.6095 0.768926 14.6143 0.768926 14.6208V14.6208Z" fill="#36A38D"/>
<path d="M0.79675 14.5916V14.6032H0.810505V14.6127H0.79675V14.6303C0.79675 14.632 0.796965 14.6333 0.79761 14.6342C0.79847 14.6348 0.799974 14.635 0.802338 14.635H0.809216V14.6445H0.79804C0.792882 14.6445 0.789121 14.6435 0.786864 14.6415C0.784822 14.6392 0.783855 14.6354 0.783855 14.6303V14.6127H0.776978V14.6032H0.783855V14.5916L0.79675 14.5916Z" fill="#36A38D"/>
<path d="M0.859885 14.6238V14.6277H0.829365C0.82958 14.6306 0.830655 14.6329 0.832374 14.6346C0.834308 14.6361 0.837103 14.6367 0.840541 14.6367C0.843335 14.6367 0.846237 14.6363 0.849138 14.6354C0.851932 14.6346 0.854941 14.6335 0.858165 14.632V14.6419C0.854941 14.6431 0.851825 14.6439 0.848708 14.6445C0.845484 14.645 0.842368 14.6453 0.839252 14.6453C0.831729 14.6453 0.826034 14.6435 0.822058 14.6397C0.817974 14.6361 0.81604 14.6307 0.81604 14.6238C0.81604 14.6173 0.817974 14.6121 0.822058 14.6084C0.826034 14.6044 0.831622 14.6023 0.838822 14.6023C0.845055 14.6023 0.850105 14.6044 0.853867 14.6084C0.857843 14.6121 0.859884 14.6173 0.859884 14.6238L0.859885 14.6238ZM0.846559 14.6195C0.846559 14.617 0.845807 14.615 0.84441 14.6135C0.842906 14.6118 0.840971 14.6109 0.838392 14.6109C0.836028 14.6109 0.834094 14.6117 0.832375 14.6131C0.830655 14.6146 0.829581 14.6167 0.829365 14.6195L0.846559 14.6195Z" fill="#36A38D"/>
<path d="M0.898258 14.6094V14.5874H0.911584V14.6446H0.898258V14.6386C0.896217 14.6412 0.894067 14.6431 0.891811 14.6442C0.889769 14.645 0.887297 14.6455 0.884503 14.6455C0.87956 14.6455 0.875477 14.6435 0.872038 14.6395C0.868814 14.6355 0.86731 14.6303 0.86731 14.624C0.86731 14.6178 0.868814 14.6126 0.872038 14.6085C0.875477 14.6045 0.87956 14.6025 0.884503 14.6025C0.887297 14.6025 0.889769 14.6031 0.891811 14.6042C0.894067 14.6054 0.896217 14.6071 0.898258 14.6094V14.6094ZM0.889661 14.636C0.892241 14.636 0.894175 14.6351 0.895679 14.633C0.897399 14.6311 0.898258 14.6281 0.898258 14.624C0.898258 14.6203 0.897399 14.6174 0.895679 14.6154C0.894175 14.6131 0.892241 14.6119 0.889661 14.6119C0.88676 14.6119 0.884611 14.6131 0.883214 14.6154C0.881709 14.6174 0.881064 14.6203 0.881064 14.624C0.881064 14.6281 0.881709 14.6311 0.883214 14.633C0.884611 14.6351 0.88676 14.636 0.889661 14.636Z" fill="#36A38D"/>
<path d="M0.973704 14.636C0.976283 14.636 0.978217 14.6351 0.979722 14.633C0.981441 14.6311 0.982301 14.6281 0.982301 14.624C0.982301 14.6203 0.981441 14.6174 0.979722 14.6154C0.978217 14.6131 0.976283 14.6119 0.973704 14.6119C0.970803 14.6119 0.968546 14.6131 0.966827 14.6154C0.965322 14.6174 0.964677 14.6203 0.964677 14.624C0.964677 14.6281 0.965322 14.6311 0.966827 14.633C0.968546 14.6351 0.970803 14.636 0.973704 14.636ZM0.964678 14.6094C0.966612 14.6071 0.968654 14.6054 0.970695 14.6042C0.972952 14.6031 0.975531 14.6025 0.978433 14.6025C0.983591 14.6025 0.987674 14.6045 0.990898 14.6085C0.994014 14.6126 0.995626 14.6178 0.995626 14.624C0.995626 14.6303 0.994014 14.6355 0.990898 14.6395C0.987674 14.6435 0.983591 14.6455 0.978433 14.6455C0.975531 14.6455 0.972952 14.645 0.970695 14.6442C0.968654 14.6431 0.966612 14.6412 0.964678 14.6386V14.6446H0.951782V14.5874H0.964678V14.6094Z" fill="#36A38D"/>
<path d="M1.00061 14.6033H1.01394L1.02468 14.6313L1.03414 14.6033H1.04746L1.03027 14.6485C1.02855 14.653 1.0264 14.6562 1.02382 14.6579C1.02146 14.6598 1.01845 14.6609 1.0148 14.6609H1.00749V14.6523H1.01136C1.01361 14.6523 1.01523 14.6519 1.01609 14.651C1.01716 14.6504 1.01802 14.6491 1.01866 14.6472L1.01909 14.6463L1.00061 14.6033Z" fill="#36A38D"/>
<path d="M1.11459 14.6045V14.6148C1.11201 14.6134 1.10921 14.6124 1.10642 14.6118C1.10384 14.6113 1.10137 14.6109 1.09911 14.6109C1.09675 14.6109 1.09492 14.6114 1.09353 14.6122C1.09234 14.6129 1.09181 14.6137 1.09181 14.6148C1.09181 14.616 1.09224 14.6168 1.0931 14.6174C1.09395 14.618 1.09567 14.6185 1.09825 14.6187L1.1004 14.6191C1.10728 14.62 1.11179 14.6215 1.11416 14.6234C1.11641 14.6251 1.1176 14.6281 1.1176 14.6324C1.1176 14.6367 1.11588 14.6401 1.11244 14.6423C1.10921 14.6444 1.10449 14.6453 1.09825 14.6453C1.09535 14.6453 1.09245 14.645 1.08966 14.6445C1.08676 14.6443 1.08385 14.6436 1.08106 14.6427V14.6329C1.08364 14.6344 1.08622 14.6353 1.0888 14.6359C1.09159 14.6365 1.09449 14.6367 1.09739 14.6367C1.09997 14.6367 1.1018 14.6365 1.10298 14.6359C1.10438 14.635 1.10513 14.6339 1.10513 14.6324C1.10513 14.6314 1.1047 14.6305 1.10384 14.6299C1.10298 14.6293 1.10105 14.6289 1.09825 14.6286L1.0961 14.6281C1.09009 14.6276 1.0859 14.6263 1.08364 14.6243C1.08127 14.6223 1.0802 14.6193 1.0802 14.6152C1.0802 14.6109 1.0816 14.6078 1.0845 14.6058C1.08761 14.6035 1.09224 14.6023 1.09825 14.6023C1.10083 14.6023 1.10341 14.6027 1.10599 14.6032C1.10878 14.6035 1.11169 14.604 1.11459 14.6045L1.11459 14.6045Z" fill="#36A38D"/>
<path d="M1.16932 14.6197V14.6446H1.15599V14.6257C1.15599 14.622 1.15578 14.6196 1.15556 14.6184C1.15556 14.617 1.15535 14.6158 1.15513 14.615C1.15449 14.6141 1.15384 14.6136 1.15298 14.6132C1.15212 14.6127 1.15105 14.6124 1.14997 14.6124C1.14707 14.6124 1.14482 14.6136 1.1431 14.6158C1.14159 14.6179 1.14095 14.6208 1.14095 14.6244V14.6446H1.12805V14.5874H1.14095V14.6094C1.14288 14.6071 1.14503 14.6054 1.14739 14.6042C1.14965 14.6031 1.15212 14.6025 1.1547 14.6025C1.15954 14.6025 1.16308 14.604 1.16545 14.6068C1.16803 14.6097 1.16932 14.614 1.16932 14.6197L1.16932 14.6197Z" fill="#36A38D"/>
<path d="M1.2013 14.626C1.1984 14.626 1.19625 14.6264 1.19485 14.6273C1.19335 14.6281 1.1927 14.6296 1.1927 14.6316C1.1927 14.6333 1.19324 14.6346 1.19442 14.6354C1.1955 14.6363 1.19711 14.6367 1.19915 14.6367C1.20173 14.6367 1.20367 14.6359 1.20517 14.6341C1.20689 14.6324 1.20775 14.6302 1.20775 14.6273V14.626L1.2013 14.626ZM1.22107 14.6208V14.6445H1.20775V14.6384C1.20603 14.641 1.20399 14.643 1.20173 14.644C1.19969 14.6449 1.19711 14.6453 1.19399 14.6453C1.1897 14.6453 1.18626 14.6443 1.18368 14.6419C1.1811 14.6393 1.17981 14.6361 1.17981 14.632C1.17981 14.6272 1.18131 14.6237 1.18454 14.6217C1.18798 14.6194 1.19313 14.6182 1.20001 14.6182H1.20775V14.617C1.20775 14.615 1.20689 14.6135 1.20517 14.6127C1.20367 14.6116 1.2013 14.6109 1.19786 14.6109C1.19496 14.6109 1.19228 14.6113 1.1897 14.6118C1.18733 14.6124 1.18518 14.6133 1.18325 14.6144V14.6045C1.18604 14.6036 1.18894 14.6031 1.19185 14.6028C1.19464 14.6026 1.19743 14.6023 1.20001 14.6023C1.20743 14.6023 1.21269 14.6038 1.21592 14.6066C1.21936 14.6095 1.22107 14.6143 1.22107 14.6208V14.6208Z" fill="#36A38D"/>
<path d="M1.26583 14.6045V14.6148C1.26325 14.6134 1.26046 14.6125 1.25767 14.6118C1.25509 14.6113 1.25261 14.611 1.25036 14.611C1.24799 14.611 1.24617 14.6114 1.24477 14.6122C1.24359 14.6129 1.24305 14.6137 1.24305 14.6148C1.24305 14.616 1.24348 14.6169 1.24434 14.6174C1.2452 14.618 1.24692 14.6185 1.2495 14.6187L1.25165 14.6191C1.25853 14.62 1.26304 14.6215 1.2654 14.6234C1.26766 14.6251 1.26884 14.6281 1.26884 14.6324C1.26884 14.6367 1.26712 14.6401 1.26368 14.6423C1.26046 14.6444 1.25573 14.6453 1.2495 14.6453C1.2466 14.6453 1.2437 14.645 1.2409 14.6445C1.238 14.6443 1.2351 14.6436 1.2323 14.6428V14.6329C1.23488 14.6344 1.23746 14.6353 1.24004 14.6359C1.24284 14.6365 1.24574 14.6367 1.24864 14.6367C1.25122 14.6367 1.25304 14.6365 1.25423 14.6359C1.25562 14.635 1.25638 14.6339 1.25638 14.6324C1.25638 14.6314 1.25595 14.6305 1.25509 14.6299C1.25423 14.6293 1.25229 14.6289 1.2495 14.6286L1.24735 14.6281C1.24133 14.6276 1.23714 14.6263 1.23488 14.6243C1.23252 14.6223 1.23145 14.6193 1.23145 14.6153C1.23145 14.611 1.23284 14.6078 1.23574 14.6058C1.23886 14.6035 1.24348 14.6024 1.2495 14.6024C1.25208 14.6024 1.25466 14.6027 1.25724 14.6032C1.26003 14.6035 1.26293 14.604 1.26583 14.6045L1.26583 14.6045Z" fill="#36A38D"/>
<path d="M1.3202 14.6197V14.6446H1.30687V14.6257C1.30687 14.622 1.30666 14.6196 1.30644 14.6184C1.30644 14.617 1.30623 14.6158 1.30601 14.615C1.30537 14.6141 1.30472 14.6136 1.30386 14.6132C1.303 14.6127 1.30193 14.6124 1.30085 14.6124C1.29795 14.6124 1.29569 14.6136 1.29398 14.6158C1.29247 14.6179 1.29183 14.6208 1.29183 14.6244V14.6446H1.27893V14.5874H1.29183V14.6094C1.29376 14.6071 1.29591 14.6054 1.29827 14.6042C1.30053 14.6031 1.303 14.6025 1.30558 14.6025C1.31042 14.6025 1.31396 14.604 1.31633 14.6068C1.31891 14.6097 1.3202 14.614 1.3202 14.6197L1.3202 14.6197Z" fill="#36A38D"/>
<path d="M1.35255 14.626C1.34965 14.626 1.3475 14.6264 1.3461 14.6273C1.34459 14.6281 1.34395 14.6297 1.34395 14.6316C1.34395 14.6333 1.34449 14.6346 1.34567 14.6355C1.34674 14.6363 1.34836 14.6367 1.3504 14.6367C1.35298 14.6367 1.35491 14.6359 1.35642 14.6342C1.35813 14.6324 1.35899 14.6302 1.35899 14.6273V14.626L1.35255 14.626ZM1.37232 14.6208V14.6445H1.35899V14.6385C1.35728 14.641 1.35523 14.643 1.35298 14.6441C1.35093 14.6449 1.34836 14.6453 1.34524 14.6453C1.34094 14.6453 1.3375 14.6443 1.33492 14.6419C1.33234 14.6393 1.33105 14.6361 1.33105 14.632C1.33105 14.6272 1.33256 14.6237 1.33578 14.6217C1.33922 14.6194 1.34438 14.6183 1.35126 14.6183H1.35899V14.617C1.35899 14.615 1.35813 14.6135 1.35642 14.6127C1.35491 14.6116 1.35255 14.611 1.34911 14.611C1.34621 14.611 1.34352 14.6113 1.34094 14.6118C1.33858 14.6125 1.33643 14.6133 1.33449 14.6144V14.6045C1.33729 14.6036 1.34019 14.6031 1.34309 14.6028C1.34588 14.6026 1.34868 14.6024 1.35126 14.6024C1.35867 14.6024 1.36394 14.6039 1.36716 14.6067C1.3706 14.6096 1.37232 14.6143 1.37232 14.6208V14.6208Z" fill="#36A38D"/>
<path d="M1.42664 14.6195V14.6445H1.41332V14.6251C1.41332 14.6217 1.4131 14.6194 1.41289 14.6182C1.41289 14.6168 1.41267 14.6157 1.41246 14.6148C1.41181 14.6139 1.41117 14.6134 1.41031 14.6131C1.40945 14.6125 1.40837 14.6122 1.4073 14.6122C1.4044 14.6122 1.40214 14.6134 1.40042 14.6157C1.39892 14.6177 1.39827 14.6206 1.39827 14.6243V14.6445H1.38538V14.6032H1.39827V14.6092C1.40021 14.607 1.40235 14.6052 1.40472 14.6041C1.40698 14.603 1.40945 14.6023 1.41203 14.6023C1.41686 14.6023 1.42041 14.6038 1.42277 14.6066C1.42535 14.6095 1.42664 14.6138 1.42664 14.6195L1.42664 14.6195Z" fill="#36A38D"/>
<path d="M1.43958 14.5874H1.45247V14.6184L1.46752 14.6034H1.48299L1.46279 14.6223L1.48471 14.6446H1.4688L1.45247 14.6274V14.6446H1.43958L1.43958 14.5874Z" fill="#36A38D"/>
<path d="M1.54818 14.6045V14.6148C1.5456 14.6134 1.54281 14.6124 1.54001 14.6118C1.53743 14.6113 1.53496 14.6109 1.53271 14.6109C1.53034 14.6109 1.52852 14.6114 1.52712 14.6122C1.52594 14.6129 1.5254 14.6137 1.5254 14.6148C1.5254 14.616 1.52583 14.6168 1.52669 14.6174C1.52755 14.618 1.52927 14.6185 1.53185 14.6187L1.534 14.6191C1.54087 14.62 1.54539 14.6215 1.54775 14.6234C1.55001 14.6251 1.55119 14.6281 1.55119 14.6324C1.55119 14.6367 1.54947 14.6401 1.54603 14.6423C1.54281 14.6444 1.53808 14.6453 1.53185 14.6453C1.52895 14.6453 1.52604 14.645 1.52325 14.6445C1.52035 14.6443 1.51745 14.6436 1.51465 14.6427V14.6329C1.51723 14.6344 1.51981 14.6353 1.52239 14.6359C1.52518 14.6365 1.52809 14.6367 1.53099 14.6367C1.53357 14.6367 1.53539 14.6365 1.53658 14.6359C1.53797 14.635 1.53872 14.6339 1.53872 14.6324C1.53872 14.6314 1.53829 14.6305 1.53744 14.6299C1.53658 14.6293 1.53464 14.6289 1.53185 14.6286L1.5297 14.6281C1.52368 14.6276 1.51949 14.6263 1.51723 14.6243C1.51487 14.6223 1.51379 14.6193 1.51379 14.6152C1.51379 14.6109 1.51519 14.6078 1.51809 14.6058C1.52121 14.6035 1.52583 14.6023 1.53185 14.6023C1.53443 14.6023 1.53701 14.6027 1.53958 14.6032C1.54238 14.6035 1.54528 14.604 1.54818 14.6045L1.54818 14.6045Z" fill="#36A38D"/>
<path d="M1.56213 14.6034H1.57503V14.6446H1.56213V14.6034ZM1.56213 14.5874H1.57503V14.5982H1.56213V14.5874Z" fill="#36A38D"/>
<path d="M1.62977 14.6195V14.6445H1.61644V14.6251C1.61644 14.6217 1.61623 14.6194 1.61601 14.6182C1.61601 14.6168 1.6158 14.6157 1.61558 14.6148C1.61494 14.6139 1.61429 14.6134 1.61343 14.6131C1.61257 14.6125 1.6115 14.6122 1.61042 14.6122C1.60752 14.6122 1.60526 14.6134 1.60355 14.6157C1.60204 14.6177 1.6014 14.6206 1.6014 14.6243V14.6445H1.5885V14.6032H1.6014V14.6092C1.60333 14.607 1.60548 14.6052 1.60784 14.6041C1.6101 14.603 1.61257 14.6023 1.61515 14.6023C1.61999 14.6023 1.62353 14.6038 1.6259 14.6066C1.62848 14.6095 1.62977 14.6138 1.62977 14.6195L1.62977 14.6195Z" fill="#36A38D"/>
<path d="M1.67011 14.6376C1.66807 14.64 1.66592 14.6417 1.66366 14.6428C1.66162 14.6439 1.65915 14.6445 1.65635 14.6445C1.65141 14.6445 1.64733 14.6425 1.64389 14.6385C1.64066 14.6345 1.63916 14.6294 1.63916 14.6234C1.63916 14.6174 1.64066 14.6125 1.64389 14.6084C1.64733 14.6044 1.65141 14.6024 1.65635 14.6024C1.65915 14.6024 1.66162 14.603 1.66366 14.6041C1.66592 14.6053 1.66807 14.607 1.67011 14.6092V14.6032H1.68343V14.6402C1.68343 14.6467 1.68129 14.6518 1.67699 14.6552C1.67269 14.6589 1.66667 14.6608 1.65893 14.6608C1.65635 14.6608 1.65377 14.6605 1.6512 14.66C1.64883 14.6596 1.64657 14.6591 1.64432 14.6582V14.6479C1.64657 14.6493 1.64872 14.6503 1.65077 14.6509C1.65302 14.6518 1.65528 14.6522 1.65764 14.6522C1.66194 14.6522 1.66506 14.6511 1.6671 14.6492C1.66903 14.6472 1.67011 14.6443 1.67011 14.6402L1.67011 14.6376ZM1.66151 14.6118C1.65861 14.6118 1.65646 14.6129 1.65506 14.6148C1.65356 14.6169 1.65292 14.6198 1.65292 14.6234C1.65292 14.6272 1.65356 14.6301 1.65506 14.632C1.65646 14.6341 1.65861 14.635 1.66151 14.635C1.66409 14.635 1.66603 14.6341 1.66753 14.632C1.66925 14.6301 1.67011 14.6272 1.67011 14.6234C1.67011 14.6198 1.66925 14.6169 1.66753 14.6148C1.66603 14.6129 1.66409 14.6118 1.66151 14.6118Z" fill="#36A38D"/>
<path d="M1.73865 14.6197V14.6446H1.72533V14.6257C1.72533 14.622 1.72511 14.6196 1.7249 14.6184C1.7249 14.617 1.72468 14.6158 1.72447 14.615C1.72382 14.6141 1.72318 14.6136 1.72232 14.6132C1.72146 14.6127 1.72038 14.6124 1.71931 14.6124C1.71641 14.6124 1.71415 14.6136 1.71243 14.6158C1.71093 14.6179 1.71028 14.6208 1.71028 14.6244V14.6446H1.69739V14.5874H1.71028V14.6094C1.71222 14.6071 1.71437 14.6054 1.71673 14.6042C1.71899 14.6031 1.72146 14.6025 1.72404 14.6025C1.72887 14.6025 1.73242 14.604 1.73478 14.6068C1.73736 14.6097 1.73865 14.614 1.73865 14.6197L1.73865 14.6197Z" fill="#36A38D"/>
<path d="M0.612316 14.6625V14.6711H0.605009C0.602967 14.6711 0.60157 14.6715 0.600711 14.6724C0.600066 14.6731 0.599851 14.6741 0.599851 14.6758V14.6784H0.611027V14.6879H0.599851V14.7197H0.586956V14.6879H0.580078V14.6784H0.586956V14.6758C0.586956 14.6713 0.58803 14.668 0.590394 14.666C0.592973 14.6637 0.596842 14.6625 0.602 14.6625L0.612316 14.6625Z" fill="#36A38D"/>
<path d="M0.648805 14.6896C0.647623 14.689 0.646441 14.6887 0.645366 14.6887C0.644184 14.6885 0.643002 14.6883 0.641928 14.6883C0.638489 14.6883 0.635695 14.6895 0.633761 14.6917C0.632041 14.6938 0.631181 14.6968 0.631181 14.7007V14.7197H0.618286V14.6784H0.631181V14.6853C0.632901 14.6827 0.634728 14.6809 0.636769 14.6797C0.639026 14.6783 0.641713 14.6775 0.644936 14.6775H0.646226C0.646763 14.6775 0.647623 14.6778 0.648805 14.678L0.648805 14.6896Z" fill="#36A38D"/>
<path d="M0.675794 14.687C0.672893 14.687 0.670636 14.6881 0.668917 14.69C0.667412 14.692 0.666768 14.6951 0.666768 14.699C0.666768 14.7031 0.667412 14.7062 0.668917 14.7085C0.670636 14.7105 0.672893 14.7115 0.675794 14.7115C0.678588 14.7115 0.680738 14.7105 0.682242 14.7085C0.683961 14.7062 0.684821 14.7031 0.684821 14.699C0.684821 14.6951 0.683961 14.692 0.682242 14.69C0.680738 14.6881 0.678588 14.687 0.675794 14.687ZM0.675794 14.6775C0.682887 14.6775 0.688475 14.6796 0.692558 14.6836C0.696534 14.6873 0.698576 14.6925 0.698576 14.699C0.698576 14.7059 0.696534 14.7113 0.692558 14.7149C0.688475 14.7187 0.682887 14.7205 0.675794 14.7205C0.668594 14.7205 0.663007 14.7187 0.65903 14.7149C0.655269 14.7113 0.653442 14.7059 0.653442 14.699C0.653442 14.6925 0.655269 14.6873 0.65903 14.6836C0.663006 14.6796 0.668594 14.6775 0.675794 14.6775Z" fill="#36A38D"/>
<path d="M0.746445 14.6853C0.748164 14.6827 0.750098 14.6809 0.752463 14.6797C0.754719 14.6783 0.757298 14.6775 0.7602 14.6775C0.764713 14.6775 0.768367 14.679 0.770946 14.6818C0.773525 14.6847 0.774814 14.689 0.774814 14.6947V14.7197H0.761489V14.6982V14.6973V14.6956C0.761489 14.6928 0.761059 14.6908 0.760199 14.6896C0.75934 14.6882 0.757835 14.6874 0.755901 14.6874C0.753537 14.6874 0.75171 14.6885 0.750313 14.6904C0.748809 14.6925 0.748164 14.6955 0.748164 14.6995V14.7197H0.734839V14.6982C0.734839 14.6937 0.734409 14.6908 0.733549 14.6896C0.732904 14.6882 0.731615 14.6874 0.729681 14.6874C0.727101 14.6874 0.72506 14.6886 0.723663 14.6909C0.722158 14.6929 0.721513 14.6958 0.721513 14.6995V14.7197H0.708618V14.6784H0.721513V14.6844C0.723233 14.6822 0.72506 14.6804 0.727101 14.6793C0.729358 14.6782 0.731615 14.6775 0.733979 14.6775C0.736773 14.6775 0.739245 14.6783 0.741286 14.6797C0.743543 14.6812 0.745262 14.683 0.746444 14.6853L0.746445 14.6853Z" fill="#36A38D"/>
<path d="M0.829465 14.6668V14.6784H0.84322V14.6879H0.829465V14.7055C0.829465 14.7072 0.82968 14.7085 0.830325 14.7093C0.831185 14.71 0.832689 14.7102 0.835053 14.7102H0.841931V14.7197H0.830755C0.825597 14.7197 0.821836 14.7187 0.819579 14.7167C0.817537 14.7144 0.81657 14.7106 0.81657 14.7055V14.6879H0.809692V14.6784H0.81657V14.6668L0.829465 14.6668Z" fill="#36A38D"/>
<path d="M0.892462 14.6949V14.7198H0.879136V14.7009C0.879136 14.6972 0.878921 14.6948 0.878706 14.6936C0.878706 14.6922 0.878492 14.691 0.878277 14.6902C0.877632 14.6893 0.876987 14.6888 0.876127 14.6884C0.875268 14.6879 0.874193 14.6876 0.873118 14.6876C0.870217 14.6876 0.86796 14.6888 0.866241 14.691C0.864736 14.6931 0.864092 14.696 0.864092 14.6996V14.7198H0.851196V14.6626H0.864092V14.6846C0.866026 14.6823 0.868175 14.6806 0.870539 14.6794C0.872796 14.6783 0.875268 14.6777 0.877847 14.6777C0.882682 14.6777 0.886229 14.6792 0.888593 14.682C0.891172 14.6849 0.892461 14.6892 0.892461 14.6949L0.892462 14.6949Z" fill="#36A38D"/>
<path d="M0.945822 14.699V14.7029H0.915303C0.915517 14.7058 0.916592 14.7081 0.918312 14.7098C0.920246 14.7113 0.92304 14.7119 0.926479 14.7119C0.929273 14.7119 0.932174 14.7115 0.935076 14.7106C0.93787 14.7098 0.940879 14.7087 0.944102 14.7072V14.7171C0.940878 14.7183 0.937762 14.7191 0.934646 14.7197C0.931422 14.7202 0.928305 14.7205 0.925189 14.7205C0.917667 14.7205 0.911971 14.7187 0.907995 14.7149C0.903912 14.7113 0.901978 14.7059 0.901978 14.699C0.901978 14.6925 0.903912 14.6873 0.907995 14.6836C0.911971 14.6796 0.917559 14.6775 0.924759 14.6775C0.930992 14.6775 0.936043 14.6796 0.939804 14.6836C0.94378 14.6873 0.945822 14.6925 0.945822 14.699L0.945822 14.699ZM0.932497 14.6947C0.932497 14.6922 0.931745 14.6902 0.930348 14.6887C0.928843 14.687 0.926909 14.6861 0.92433 14.6861C0.921966 14.6861 0.920031 14.6869 0.918312 14.6883C0.916593 14.6898 0.915518 14.6919 0.915303 14.6947L0.932497 14.6947Z" fill="#36A38D"/>
<path d="M0.984497 14.6646H1.0004L1.02017 14.7024V14.6646H1.0335V14.7196H1.01803L0.997822 14.6818V14.7196H0.984497L0.984497 14.6646Z" fill="#36A38D"/>
<path d="M1.06691 14.687C1.06401 14.687 1.06175 14.6881 1.06003 14.69C1.05853 14.692 1.05788 14.6951 1.05788 14.699C1.05788 14.7031 1.05853 14.7062 1.06003 14.7085C1.06175 14.7105 1.06401 14.7115 1.06691 14.7115C1.0697 14.7115 1.07185 14.7105 1.07336 14.7085C1.07507 14.7062 1.07593 14.7031 1.07593 14.699C1.07593 14.6951 1.07507 14.692 1.07336 14.69C1.07185 14.6881 1.0697 14.687 1.06691 14.687ZM1.06691 14.6775C1.074 14.6775 1.07959 14.6796 1.08367 14.6836C1.08765 14.6873 1.08969 14.6925 1.08969 14.699C1.08969 14.7059 1.08765 14.7113 1.08367 14.7149C1.07959 14.7187 1.074 14.7205 1.06691 14.7205C1.05971 14.7205 1.05412 14.7187 1.05014 14.7149C1.04638 14.7113 1.04456 14.7059 1.04456 14.699C1.04456 14.6925 1.04638 14.6873 1.05014 14.6836C1.05412 14.6796 1.05971 14.6775 1.06691 14.6775Z" fill="#36A38D"/>
<path d="M1.09973 14.7039V14.6785H1.11263V14.6828V14.6914V14.6979V14.7052C1.11284 14.7067 1.11327 14.7076 1.11392 14.7082C1.11445 14.709 1.11521 14.7098 1.11607 14.7103C1.11693 14.7106 1.11789 14.7108 1.11907 14.7108C1.12165 14.7108 1.12359 14.7098 1.12509 14.7077C1.12681 14.7058 1.12767 14.7029 1.12767 14.6991V14.6785H1.141V14.7198H1.12767V14.7138C1.12563 14.7163 1.12348 14.7183 1.12122 14.7193C1.11918 14.7202 1.11693 14.7206 1.11435 14.7206C1.1094 14.7206 1.10575 14.7192 1.10317 14.7163C1.10081 14.7135 1.09973 14.7094 1.09973 14.7039V14.7039Z" fill="#36A38D"/>
<path d="M1.19568 14.6947V14.7197H1.18236V14.7003C1.18236 14.6969 1.18214 14.6946 1.18193 14.6934C1.18193 14.692 1.18171 14.6909 1.1815 14.69C1.18085 14.6891 1.18021 14.6886 1.17935 14.6883C1.17849 14.6877 1.17742 14.6874 1.17634 14.6874C1.17344 14.6874 1.17118 14.6886 1.16946 14.6909C1.16796 14.6929 1.16731 14.6958 1.16731 14.6995V14.7197H1.15442V14.6784H1.16731V14.6844C1.16925 14.6822 1.1714 14.6804 1.17376 14.6793C1.17602 14.6782 1.17849 14.6775 1.18107 14.6775C1.1859 14.6775 1.18945 14.679 1.19182 14.6818C1.19439 14.6847 1.19568 14.689 1.19568 14.6947L1.19568 14.6947Z" fill="#36A38D"/>
<path d="M1.23547 14.6646H1.25912C1.26599 14.6646 1.27126 14.6662 1.27502 14.6693C1.27867 14.6725 1.28061 14.677 1.28061 14.6827C1.28061 14.6885 1.27867 14.6929 1.27502 14.696C1.27126 14.6992 1.26599 14.7007 1.25912 14.7007H1.24966V14.7196H1.23547L1.23547 14.6646ZM1.24966 14.6749V14.6904H1.2574C1.26019 14.6904 1.26234 14.6898 1.26384 14.6887C1.26524 14.6873 1.26599 14.6852 1.26599 14.6827C1.26599 14.6801 1.26524 14.6782 1.26384 14.6771C1.26234 14.6757 1.26019 14.6749 1.2574 14.6749L1.24966 14.6749Z" fill="#36A38D"/>
<path d="M1.32166 14.6896C1.32047 14.689 1.31929 14.6887 1.31822 14.6887C1.31704 14.6885 1.31585 14.6883 1.31478 14.6883C1.31134 14.6883 1.30855 14.6895 1.30661 14.6917C1.30489 14.6938 1.30403 14.6968 1.30403 14.7007V14.7197H1.29114V14.6784H1.30403V14.6853C1.30575 14.6827 1.30758 14.6809 1.30962 14.6797C1.31188 14.6783 1.31456 14.6775 1.31779 14.6775H1.31908C1.31961 14.6775 1.32047 14.6778 1.32166 14.678L1.32166 14.6896Z" fill="#36A38D"/>
<path d="M1.34816 14.687C1.34526 14.687 1.343 14.6881 1.34128 14.69C1.33978 14.692 1.33913 14.6951 1.33913 14.699C1.33913 14.7031 1.33978 14.7062 1.34128 14.7085C1.343 14.7105 1.34526 14.7115 1.34816 14.7115C1.35095 14.7115 1.3531 14.7105 1.35461 14.7085C1.35632 14.7062 1.35718 14.7031 1.35718 14.699C1.35718 14.6951 1.35632 14.692 1.35461 14.69C1.3531 14.6881 1.35095 14.687 1.34816 14.687ZM1.34816 14.6775C1.35525 14.6775 1.36084 14.6796 1.36492 14.6836C1.3689 14.6873 1.37094 14.6925 1.37094 14.699C1.37094 14.7059 1.3689 14.7113 1.36492 14.7149C1.36084 14.7187 1.35525 14.7205 1.34816 14.7205C1.34096 14.7205 1.33537 14.7187 1.33139 14.7149C1.32763 14.7113 1.32581 14.7059 1.32581 14.699C1.32581 14.6925 1.32763 14.6873 1.33139 14.6836C1.33537 14.6796 1.34096 14.6775 1.34816 14.6775Z" fill="#36A38D"/>
<path d="M1.38122 14.6785H1.39411V14.719C1.39411 14.7246 1.39283 14.7289 1.39025 14.7318C1.38767 14.7346 1.3838 14.7361 1.37864 14.7361H1.37219V14.7276H1.37434C1.37692 14.7276 1.37864 14.7269 1.3795 14.7258C1.38057 14.7246 1.38122 14.7224 1.38122 14.719L1.38122 14.6785ZM1.38122 14.6626H1.39411V14.6734H1.38122V14.6626Z" fill="#36A38D"/>
<path d="M1.44826 14.699V14.7029H1.41774C1.41796 14.7058 1.41903 14.7081 1.42075 14.7098C1.42269 14.7113 1.42548 14.7119 1.42892 14.7119C1.43171 14.7119 1.43462 14.7115 1.43752 14.7106C1.44031 14.7098 1.44332 14.7087 1.44654 14.7072V14.7171C1.44332 14.7183 1.4402 14.7191 1.43709 14.7197C1.43386 14.7202 1.43075 14.7205 1.42763 14.7205C1.42011 14.7205 1.41441 14.7187 1.41044 14.7149C1.40635 14.7113 1.40442 14.7059 1.40442 14.699C1.40442 14.6925 1.40635 14.6873 1.41044 14.6836C1.41441 14.6796 1.42 14.6775 1.4272 14.6775C1.43343 14.6775 1.43848 14.6796 1.44225 14.6836C1.44622 14.6873 1.44826 14.6925 1.44826 14.699L1.44826 14.699ZM1.43494 14.6947C1.43494 14.6922 1.43419 14.6902 1.43279 14.6887C1.43128 14.687 1.42935 14.6861 1.42677 14.6861C1.42441 14.6861 1.42247 14.6869 1.42075 14.6883C1.41903 14.6898 1.41796 14.6919 1.41774 14.6947L1.43494 14.6947Z" fill="#36A38D"/>
<path d="M1.49277 14.6797V14.6904C1.49105 14.6894 1.48912 14.6885 1.48718 14.6879C1.48546 14.6873 1.48353 14.687 1.4816 14.687C1.47816 14.687 1.47526 14.6882 1.473 14.6904C1.47096 14.6925 1.46999 14.6954 1.46999 14.699C1.46999 14.7031 1.47096 14.7062 1.473 14.7085C1.47526 14.7105 1.47816 14.7115 1.4816 14.7115C1.48385 14.7115 1.48589 14.7113 1.48761 14.7106C1.48955 14.7098 1.49127 14.7088 1.49277 14.7076V14.7184C1.49073 14.7192 1.48858 14.7198 1.48632 14.7201C1.48428 14.7203 1.48224 14.7205 1.48031 14.7205C1.47278 14.7205 1.46698 14.7187 1.46268 14.7149C1.4586 14.7113 1.45667 14.7059 1.45667 14.699C1.45667 14.6925 1.4586 14.6873 1.46268 14.6836C1.46698 14.6796 1.47278 14.6775 1.48031 14.6775C1.48224 14.6775 1.48428 14.6779 1.48632 14.6784C1.48858 14.6787 1.49073 14.6791 1.49277 14.6797H1.49277Z" fill="#36A38D"/>
<path d="M1.51892 14.6668V14.6784H1.53267V14.6879H1.51892V14.7055C1.51892 14.7072 1.51913 14.7085 1.51978 14.7093C1.52064 14.71 1.52214 14.7102 1.52451 14.7102H1.53138V14.7197H1.52021C1.51505 14.7197 1.51129 14.7187 1.50903 14.7167C1.50699 14.7144 1.50602 14.7106 1.50602 14.7055V14.6879H1.49915V14.6784H1.50602V14.6668L1.51892 14.6668Z" fill="#36A38D"/>
</svg>
