<svg width="21" height="6" viewBox="0 0 21 6" fill="none" xmlns="http://www.w3.org/2000/svg">
<path d="M11.3359 3C11.3359 3.19778 11.2773 3.39112 11.1674 3.55557C11.0575 3.72002 10.9013 3.84819 10.7186 3.92388C10.5359 3.99957 10.3348 4.01937 10.1408 3.98079C9.94687 3.9422 9.76868 3.84696 9.62883 3.70711C9.48898 3.56726 9.39374 3.38907 9.35515 3.19509C9.31657 3.00111 9.33637 2.80004 9.41206 2.61732C9.48775 2.43459 9.61592 2.27841 9.78037 2.16853C9.94482 2.05865 10.1382 2 10.3359 2C10.6012 2 10.8555 2.10536 11.043 2.29289C11.2306 2.48043 11.3359 2.73478 11.3359 3Z" stroke="#A2A2A2" stroke-width="3" stroke-linecap="round" stroke-linejoin="round"/>
<path d="M18.8359 3C18.8359 3.19778 18.7773 3.39112 18.6674 3.55557C18.5575 3.72002 18.4013 3.84819 18.2186 3.92388C18.0359 3.99957 17.8348 4.01937 17.6408 3.98079C17.4469 3.9422 17.2687 3.84696 17.1288 3.70711C16.989 3.56726 16.8937 3.38907 16.8552 3.19509C16.8166 3.00111 16.8364 2.80004 16.9121 2.61732C16.9877 2.43459 17.1159 2.27841 17.2804 2.16853C17.4448 2.05865 17.6382 2 17.8359 2C18.1012 2 18.3555 2.10536 18.543 2.29289C18.7306 2.48043 18.8359 2.73478 18.8359 3Z" stroke="#A2A2A2" stroke-width="3" stroke-linecap="round" stroke-linejoin="round"/>
<path d="M3.83594 3C3.83594 3.19778 3.77729 3.39112 3.66741 3.55557C3.55753 3.72002 3.40135 3.84819 3.21862 3.92388C3.0359 3.99957 2.83483 4.01937 2.64085 3.98079C2.44687 3.9422 2.26868 3.84696 2.12883 3.70711C1.98898 3.56726 1.89374 3.38907 1.85515 3.19509C1.81657 3.00111 1.83637 2.80004 1.91206 2.61732C1.98775 2.43459 2.11592 2.27841 2.28037 2.16853C2.44482 2.05865 2.63816 2 2.83594 2C3.10115 2 3.35551 2.10536 3.54304 2.29289C3.73058 2.48043 3.83594 2.73478 3.83594 3Z" stroke="#A2A2A2" stroke-width="3" stroke-linecap="round" stroke-linejoin="round"/>
</svg>
