<svg width="11" height="13" viewBox="0 0 11 13" fill="none" xmlns="http://www.w3.org/2000/svg">
<path d="M7.42026 4.1189L6.65826 3.3579L2.85326 7.16291C2.56043 7.4678 2.39882 7.87536 2.40313 8.29808C2.40744 8.7208 2.57733 9.12498 2.87632 9.42384C3.17531 9.7227 3.57956 9.89241 4.00228 9.89653C4.425 9.90066 4.83249 9.73887 5.13726 9.4459L9.70526 4.8789C10.2098 4.37407 10.4932 3.68946 10.493 2.9757C10.4928 2.26193 10.2091 1.57748 9.70426 1.0729C9.45429 0.823065 9.15755 0.624907 8.831 0.489745C8.50445 0.354583 8.15447 0.285063 7.80105 0.285156C7.08729 0.285344 6.40283 0.569065 5.89826 1.0739L1.09826 5.8739L1.08826 5.8839C0.38921 6.58877 -0.00209415 7.54189 8.42963e-06 8.53461C0.00211101 9.52733 0.397449 10.4788 1.09948 11.1807C1.80151 11.8826 2.75303 12.2777 3.74576 12.2797C4.73848 12.2816 5.69153 11.8901 6.39626 11.1909L6.40626 11.1809L9.67926 7.90791L8.91726 7.1469L5.64926 10.4159L5.63926 10.4259C5.39443 10.6902 5.09876 10.9024 4.76997 11.0497C4.44118 11.1971 4.08604 11.2765 3.72581 11.2833C3.36558 11.2901 3.00769 11.2241 2.67358 11.0893C2.33946 10.9545 2.036 10.7536 1.78137 10.4987C1.52674 10.2438 1.32619 9.94014 1.19172 9.60588C1.05726 9.27163 0.991648 8.91367 0.998827 8.55345C1.00601 8.19323 1.08583 7.83817 1.2335 7.50953C1.38118 7.1809 1.59368 6.88545 1.85826 6.6409L1.86826 6.6309L6.66826 1.8359C6.81705 1.68099 6.99525 1.55731 7.19242 1.4721C7.3896 1.3869 7.60179 1.34188 7.81658 1.33969C8.03136 1.3375 8.24443 1.37818 8.4433 1.45935C8.64217 1.54051 8.82285 1.66053 8.97477 1.81238C9.12669 1.96423 9.24679 2.14486 9.32804 2.3437C9.40929 2.54254 9.45006 2.75558 9.44797 2.97037C9.44587 3.18516 9.40095 3.39737 9.31583 3.59458C9.23071 3.7918 9.10711 3.97005 8.95226 4.1189L4.37626 8.6849C4.32629 8.73487 4.26697 8.77451 4.20168 8.80155C4.1364 8.82859 4.06642 8.84251 3.99576 8.84251C3.92509 8.84251 3.85512 8.82859 3.78983 8.80155C3.72455 8.77451 3.66523 8.73487 3.61526 8.6849C3.56529 8.63494 3.52565 8.57562 3.49861 8.51033C3.47157 8.44504 3.45765 8.37507 3.45765 8.3044C3.45765 8.23374 3.47157 8.16377 3.49861 8.09848C3.52565 8.03319 3.56529 7.97387 3.61526 7.9239L7.42126 4.1179L7.42026 4.1189Z" fill="#2F3640"/>
</svg>
