<svg width="21" height="21" viewBox="0 0 21 21" fill="none" xmlns="http://www.w3.org/2000/svg">
<g clip-path="url(#clip0_1757_6383)">
<path fill-rule="evenodd" clip-rule="evenodd" d="M4.94341 5.47826L7.03693 7.57177C7.39349 7.92834 7.39349 8.50644 7.03693 8.86301C6.68036 9.21955 6.10225 9.21955 5.74568 8.86301L2.09351 5.21084C1.73695 4.85427 1.73695 4.27617 2.09351 3.9196L5.74568 0.267424C6.10225 -0.0891414 6.68036 -0.0891414 7.03693 0.267424C7.39349 0.62399 7.39349 1.20209 7.03693 1.55867L4.94341 3.65217H10.5C15.2905 3.65217 19.1739 7.53561 19.1739 12.3261C19.1739 17.1166 15.2905 21 10.5 21C5.70953 21 1.82609 17.1166 1.82609 12.3261C1.82609 11.8218 2.23488 11.413 2.73913 11.413C3.24339 11.413 3.65217 11.8218 3.65217 12.3261C3.65217 16.108 6.71805 19.1739 10.5 19.1739C14.2819 19.1739 17.3478 16.108 17.3478 12.3261C17.3478 8.54413 14.2819 5.47826 10.5 5.47826H4.94341ZM10.9565 8.21739V11.8696H12.7826C13.2869 11.8696 13.6957 12.2783 13.6957 12.7826C13.6957 13.2869 13.2869 13.6957 12.7826 13.6957H10.0435C9.53921 13.6957 9.13044 13.2869 9.13044 12.7826V8.21739C9.13044 7.71313 9.53921 7.30435 10.0435 7.30435C10.5478 7.30435 10.9565 7.71313 10.9565 8.21739Z" fill="#CCCDCE"/>
</g>
<defs>
<clipPath id="clip0_1757_6383">
<rect width="21" height="21" fill="white"/>
</clipPath>
</defs>
</svg>
