<svg width="20" height="18" viewBox="0 0 20 18" fill="none" xmlns="http://www.w3.org/2000/svg">
<path d="M8.21214 10.9571C7.96915 10.7141 7.58432 10.7141 7.3615 10.9571C7.24 11.0786 7.17925 11.2205 7.17925 11.3825V13.9749H3.73622C3.39193 13.9749 3.12858 13.7116 3.12858 13.3673L3.12844 5.61026C4.5665 5.32672 5.49808 3.94941 5.21454 2.53172C4.931 1.11402 3.55383 0.162216 2.13613 0.445763C0.718433 0.729303 -0.233511 2.08625 0.0500362 3.52417C0.232284 4.49629 0.961402 5.28617 1.91335 5.56972V13.3673C1.91335 14.3799 2.72341 15.19 3.73608 15.19H7.17911V17.114C7.17911 17.4583 7.44245 17.7217 7.78675 17.7217C7.9488 17.7217 8.11084 17.6609 8.21214 17.5394L11.0679 14.6837C11.3109 14.4407 11.3109 14.0558 11.0679 13.833L8.21214 10.9571ZM1.20448 3.03805C1.20448 2.24817 1.8323 1.62035 2.62218 1.62035C3.41206 1.62035 4.03988 2.24817 4.03988 3.03805C4.03988 3.82793 3.41206 4.45575 2.62218 4.45575C1.8323 4.45575 1.20448 3.80757 1.20448 3.03805ZM8.39442 15.6356V12.8406L9.79194 14.2382L8.39442 15.6356Z" fill="white"/>
<path d="M17.3461 12.1521V4.35455C17.3461 3.34188 16.536 2.53182 15.5234 2.53182H12.0803V0.607637C12.0803 0.263348 11.817 0 11.4727 0C11.3106 0 11.1486 0.0607493 11.0473 0.182248L8.19153 3.03815C7.94853 3.28115 7.94853 3.66597 8.19153 3.88879L11.0473 6.76477C11.2903 7.00777 11.6751 7.00777 11.8979 6.76477C12.0194 6.64327 12.0802 6.50144 12.0802 6.33938L12.0803 3.74695H15.5234C15.8676 3.74695 16.131 4.01029 16.131 4.35459V12.0914C14.6929 12.3749 13.7613 13.7522 14.0449 15.1699C14.3284 16.6078 15.7056 17.5394 17.1233 17.2559C18.5614 16.9723 19.4929 15.595 19.2094 14.1773C19.0271 13.2052 18.298 12.4153 17.3461 12.1521V12.1521ZM10.865 4.86088L9.46749 3.46336L10.865 2.06584V4.86088ZM16.6372 16.1015C15.8473 16.1015 15.2195 15.4737 15.2195 14.6838C15.2195 13.8939 15.8473 13.2661 16.6372 13.2661C17.4271 13.2661 18.0549 13.8939 18.0549 14.6838C18.0549 15.4737 17.4067 16.1015 16.6372 16.1015Z" fill="white"/>
</svg>
