<?xml version="1.0"?>
<svg width="24" height="24" xmlns="http://www.w3.org/2000/svg" xmlns:svg="http://www.w3.org/2000/svg">
 <g class="layer">
  <title>Layer 1</title>
  <path d="m12,12l0,3m-3,-3l3,0l-3,0zm6,0l-3,0l3,0zm-3,0l0,-3l0,3z" id="svg_1" stroke="#ffffff" stroke-linecap="round" stroke-linejoin="round" stroke-width="1.5"/>
  <path d="m12,22c5.52,0 10,-4.48 10,-10c0,-5.52 -4.48,-10 -10,-10c-5.52,0 -10,4.48 -10,10c0,1.82 0.49,3.53 1.34,5l-0.84,4.5l4.5,-0.84c1.47,0.85 3.18,1.34 5,1.34z" fill="none" id="svg_2" stroke="#ffffff" stroke-linecap="round" stroke-linejoin="round" stroke-width="1.5"/>
 </g>
</svg>