<?xml version="1.0"?>
<svg width="15" height="17" xmlns="http://www.w3.org/2000/svg" xmlns:svg="http://www.w3.org/2000/svg">
 <g class="layer">
  <title>Layer 1</title>
  <path d="m1,12l0,-3c0,-1.89 0,-2.83 0.59,-3.41c0.58,-0.59 1.52,-0.59 3.41,-0.59l5,0c1.89,0 2.83,0 3.41,0.59c0.59,0.58 0.59,1.52 0.59,3.41l0,3c0,1.89 0,2.83 -0.59,3.41c-0.58,0.59 -1.52,0.59 -3.41,0.59l-5,0c-1.89,0 -2.83,0 -3.41,-0.59c-0.59,-0.58 -0.59,-1.52 -0.59,-3.41z" fill="none" id="svg_1" stroke="#ffffff"/>
  <path d="m5,2.5l0,0c0,-0.47 0,-0.7 0.08,-0.88c0.1,-0.25 0.29,-0.44 0.54,-0.54c0.18,-0.08 0.41,-0.08 0.88,-0.08l1.5,0c0.94,0 1.41,0 1.71,0.29c0.29,0.3 0.29,0.77 0.29,1.71l0,1.43l0,0.57" fill="#1c1c1e" id="svg_2" stroke="#ffffff" stroke-width="0.9"/>
 </g>
</svg>