<svg xmlns="http://www.w3.org/2000/svg" xmlns:xlink="http://www.w3.org/1999/xlink" version="1.1" width="1000" height="1000" viewBox="0 0 1000 1000" xml:space="preserve">
<desc>Created with Fabric.js 3.5.0</desc>
<defs>
</defs>
<rect x="0" y="0" width="100%" height="100%" fill="#ffffff"/>
<g transform="matrix(-0.9091 0 0 -0.9091 499.9955 499.9955)" id="265927">
<g style="" vector-effect="non-scaling-stroke">
		<g transform="matrix(1 0 0 1 -450 -450)">
<rect style="stroke: none; stroke-width: 1; stroke-dasharray: none; stroke-linecap: butt; stroke-dashoffset: 0; stroke-linejoin: miter; stroke-miterlimit: 4; is-custom-font: none; font-file-url: none; fill: rgb(255,255,255); fill-rule: nonzero; opacity: 1;" x="-50" y="-50" rx="0" ry="0" width="100" height="100"/>
</g>
		<g transform="matrix(-1.3837 0 0 -1.3837 0.692 0.692)" id="450305">
<path style="stroke: none; stroke-width: 1; stroke-dasharray: none; stroke-linecap: butt; stroke-dashoffset: 0; stroke-linejoin: miter; stroke-miterlimit: 4; is-custom-font: none; font-file-url: none; fill: rgb(254,254,254); fill-rule: evenodd; opacity: 1;" vector-effect="non-scaling-stroke" transform=" translate(-278, -328)" d="M -0.5 -0.5 C 184.167 -0.5 368.833 -0.5 553.5 -0.5 C 554.167 0.833333 555.167 1.83333 556.5 2.5 C 556.5 219.167 556.5 435.833 556.5 652.5 C 554.809 653.864 553.142 655.197 551.5 656.5 C 367.5 656.5 183.5 656.5 -0.5 656.5 C -0.5 437.5 -0.5 218.5 -0.5 -0.5 Z" stroke-linecap="round"/>
</g>
		<g transform="matrix(-1.3837 0 0 -1.3837 -382.593 453.1618)" id="450305">
<path style="stroke: none; stroke-width: 1; stroke-dasharray: none; stroke-linecap: butt; stroke-dashoffset: 0; stroke-linejoin: miter; stroke-miterlimit: 4; is-custom-font: none; font-file-url: none; fill: rgb(56,164,142); fill-rule: evenodd; opacity: 1;" vector-effect="non-scaling-stroke" transform=" translate(-555, -1)" d="M 553.5 -0.5 C 554.5 -0.5 555.5 -0.5 556.5 -0.5 C 556.5 0.5 556.5 1.5 556.5 2.5 C 555.167 1.83333 554.167 0.833333 553.5 -0.5 Z" stroke-linecap="round"/>
</g>
		<g transform="matrix(-1.3837 0 0 -1.3837 178.4974 27.9276)" id="450305">
<path style="stroke: none; stroke-width: 1; stroke-dasharray: none; stroke-linecap: butt; stroke-dashoffset: 0; stroke-linejoin: miter; stroke-miterlimit: 4; is-custom-font: none; font-file-url: none; fill: rgb(57,164,142); fill-rule: evenodd; opacity: 1;" vector-effect="non-scaling-stroke" transform=" translate(-149.5, -308.3168)" d="M 211.5 158.5 C 223.975 157.901 231.309 163.734 233.5 176 C 232.778 180.169 231.278 184.003 229 187.5 C 188.653 227.68 148.486 268.014 108.5 308.5 C 148.486 348.986 188.653 389.32 229 429.5 C 235.727 439.753 234.227 448.586 224.5 456 C 219.249 458.516 213.915 458.85 208.5 457 C 162.083 412.584 116.25 367.417 71 321.5 C 68.1946 317.422 66.3613 312.922 65.5 308 C 66.3817 303.404 68.215 299.238 71 295.5 C 114.5 252 158 208.5 201.5 165 C 204.491 162.152 207.824 159.985 211.5 158.5 Z" stroke-linecap="round"/>
</g>
		<g transform="matrix(-1.3837 0 0 -1.3837 -136.0537 27.7508)" id="450305">
<path style="stroke: none; stroke-width: 1; stroke-dasharray: none; stroke-linecap: butt; stroke-dashoffset: 0; stroke-linejoin: miter; stroke-miterlimit: 4; is-custom-font: none; font-file-url: none; fill: rgb(55,163,141); fill-rule: evenodd; opacity: 1;" vector-effect="non-scaling-stroke" transform=" translate(-376.8261, -308.4445)" d="M 437.5 158.5 C 453.575 157.742 461.075 165.408 460 181.5 C 458.667 183.5 457.333 185.5 456 187.5 C 415.595 227.404 375.762 267.737 336.5 308.5 C 376.095 349.596 416.262 390.263 457 430.5 C 462.184 439.562 461.018 447.729 453.5 455 C 446.517 459.587 439.517 459.587 432.5 455 C 386.306 409.139 340.472 362.972 295 316.5 C 292.442 309.74 293.109 303.407 297 297.5 C 343.369 250.631 390.202 204.297 437.5 158.5 Z" stroke-linecap="round"/>
</g>
		<g transform="matrix(-1.3837 0 0 -1.3837 -381.2092 -451.0861)" id="450305">
<path style="stroke: none; stroke-width: 1; stroke-dasharray: none; stroke-linecap: butt; stroke-dashoffset: 0; stroke-linejoin: miter; stroke-miterlimit: 4; is-custom-font: none; font-file-url: none; fill: rgb(64,166,145); fill-rule: evenodd; opacity: 1;" vector-effect="non-scaling-stroke" transform=" translate(-554, -654.5)" d="M 556.5 652.5 C 556.5 653.833 556.5 655.167 556.5 656.5 C 554.833 656.5 553.167 656.5 551.5 656.5 C 553.142 655.197 554.809 653.864 556.5 652.5 Z" stroke-linecap="round"/>
</g>
</g>
</g>
</svg>