<svg width="20" height="20" viewBox="0 0 20 20" fill="none" xmlns="http://www.w3.org/2000/svg">
<g clip-path="url(#clip0_745_5853)">
<path d="M10 12.5C11.3807 12.5 12.5 11.3807 12.5 10C12.5 8.61925 11.3807 7.5 10 7.5C8.61925 7.5 7.5 8.61925 7.5 10C7.5 11.3807 8.61925 12.5 10 12.5Z" stroke="#848484" stroke-width="1.5" stroke-linecap="round" stroke-linejoin="round"/>
<path d="M16.3518 8.66279L15.4371 6.45396L16.6665 4.99996L14.9998 3.33329L13.5538 4.56908L11.298 3.64141L10.7793 1.66663H9.15067L8.62409 3.66757L6.42018 4.59659L4.99984 3.33329L3.33317 4.99996L4.54431 6.49067L3.64359 8.70521L1.6665 9.16663V10.8333L3.66743 11.3795L4.5963 13.583L3.33317 15L4.99984 16.6666L6.49247 15.4502L8.664 16.3435L9.1665 18.3333H10.8332L11.3369 16.3443L13.5458 15.4295C13.9139 15.6927 14.9998 16.6666 14.9998 16.6666L16.6665 15L15.4298 13.5411L16.3448 11.3316L18.3331 10.8143L18.3332 9.16663L16.3518 8.66279Z" stroke="#848484" stroke-width="1.5" stroke-linecap="round" stroke-linejoin="round"/>
</g>
<defs>
<clipPath id="clip0_745_5853">
<rect width="20" height="20" fill="white"/>
</clipPath>
</defs>
</svg>
