<svg width="16" height="3" viewBox="0 0 16 3" fill="none" xmlns="http://www.w3.org/2000/svg">
<path d="M12.5 1.5C12.5 1.20333 12.588 0.913319 12.7528 0.666645C12.9176 0.419972 13.1519 0.227713 13.426 0.114181C13.7001 0.000649929 14.0017 -0.0290551 14.2926 0.0288228C14.5836 0.0867006 14.8509 0.229562 15.0607 0.439341C15.2704 0.649119 15.4133 0.916394 15.4712 1.20737C15.5291 1.49834 15.4994 1.79994 15.3858 2.07403C15.2723 2.34812 15.08 2.58238 14.8334 2.74721C14.5867 2.91203 14.2967 3 14 3C13.6022 3 13.2206 2.84197 12.9393 2.56066C12.658 2.27936 12.5 1.89783 12.5 1.5V1.5ZM6.5 1.5C6.5 1.20333 6.58797 0.913319 6.7528 0.666645C6.91762 0.419972 7.15189 0.227713 7.42597 0.114181C7.70006 0.000649929 8.00166 -0.0290551 8.29264 0.0288228C8.58361 0.0867006 8.85088 0.229562 9.06066 0.439341C9.27044 0.649119 9.4133 0.916394 9.47118 1.20737C9.52906 1.49834 9.49935 1.79994 9.38582 2.07403C9.27229 2.34812 9.08003 2.58238 8.83335 2.74721C8.58668 2.91203 8.29667 3 8 3C7.60218 3 7.22064 2.84197 6.93934 2.56066C6.65804 2.27936 6.5 1.89783 6.5 1.5V1.5ZM0.5 1.5C0.5 1.20333 0.587973 0.913319 0.752796 0.666645C0.917618 0.419972 1.15189 0.227713 1.42597 0.114181C1.70006 0.000649929 2.00166 -0.0290551 2.29264 0.0288228C2.58361 0.0867006 2.85088 0.229562 3.06066 0.439341C3.27044 0.649119 3.4133 0.916394 3.47118 1.20737C3.52906 1.49834 3.49935 1.79994 3.38582 2.07403C3.27229 2.34812 3.08003 2.58238 2.83336 2.74721C2.58668 2.91203 2.29667 3 2 3C1.60218 3 1.22064 2.84197 0.93934 2.56066C0.658035 2.27936 0.5 1.89783 0.5 1.5H0.5Z" fill="#36A38D"/>
</svg>
