<svg width="14" height="14" viewBox="0 0 14 14" fill="none" xmlns="http://www.w3.org/2000/svg">
<path d="M5.62349 0.000111613C4.80025 0.000111613 4.12368 0.675805 4.12368 1.49831V1.99645H0.502457C0.224463 1.99533 -0.00111142 2.22079 4.1198e-06 2.49836C0.00112144 2.77449 0.226039 2.9975 0.502457 2.9965H1.39901L1.99534 11.8261C2.07534 12.9958 2.98866 14 4.20486 14H9.79517C11.0114 14 11.9247 12.9957 12.0047 11.8261L12.603 2.9965H13.4975C13.774 2.99762 13.999 2.77461 14 2.49836C14.0011 2.22066 13.7754 1.99533 13.4975 1.99645L9.8766 1.99633V1.49819C9.8766 0.675836 9.20018 0 8.3768 0L5.62349 0.000111613ZM5.62349 1.00016H8.3766C8.66252 1.00016 8.87527 1.21256 8.87527 1.49831V1.99645H5.12104L5.12093 1.49819C5.12093 1.21257 5.33746 1.00005 5.62338 1.00005L5.62349 1.00016ZM2.39614 2.99636H11.5999L11.0074 11.7557C10.9584 12.473 10.4724 12.9998 9.79511 12.9998H4.20509C3.52775 12.9998 3.04184 12.4729 2.99278 11.7557L2.39614 2.99636Z" fill="#FF3B30"/>
<path d="M5.49815 4.99732C5.3653 4.99777 5.23815 5.05101 5.14463 5.1451C5.051 5.2393 4.99882 5.36665 4.99927 5.49935V10.497C4.99882 10.6296 5.051 10.7571 5.14463 10.8513C5.23815 10.9454 5.36531 10.9985 5.49815 10.999C5.63156 10.9995 5.75971 10.9468 5.85401 10.8525C5.94842 10.7583 6.00116 10.6303 6.0006 10.497V5.49935C6.00116 5.36608 5.94842 5.23806 5.85401 5.14376C5.7597 5.04955 5.63155 4.99676 5.49815 4.99732V4.99732Z" fill="#FF3B30"/>
<path d="M8.50221 4.99732C8.3688 4.99676 8.24065 5.04955 8.14635 5.14376C8.05194 5.23807 7.9992 5.36609 7.99976 5.49935V10.497C7.9992 10.6303 8.05194 10.7583 8.14635 10.8525C8.24066 10.9468 8.36881 10.9995 8.50221 10.999C8.63506 10.9985 8.76221 10.9454 8.85584 10.8513C8.94936 10.7571 9.00165 10.6296 9.00109 10.497V5.49935C9.00165 5.36664 8.94936 5.23929 8.85584 5.1451C8.76221 5.05101 8.63505 4.99777 8.50221 4.99732V4.99732Z" fill="#FF3B30"/>
</svg>
