<svg width="24" height="22" viewBox="0 0 24 22" fill="none" xmlns="http://www.w3.org/2000/svg">
<path d="M6.00376 19.7639L2.69352 10.9366C2.48311 10.3756 2.37791 10.095 2.47612 9.84493C2.57432 9.59484 2.84231 9.46085 3.37828 9.19286L11.5937 5.08517C11.9192 4.92242 12.0819 4.84105 12.2561 4.8453C12.4304 4.84954 12.589 4.93875 12.9061 5.11716L21.1554 9.75738C21.6829 10.0541 21.9467 10.2025 22.0319 10.4595C22.1171 10.7166 21.9942 10.9931 21.7484 11.5462L19.764 16.0112" stroke="#848484" stroke-width="1.5" stroke-linecap="round" stroke-linejoin="round"/>
<path d="M12.2583 6.00366L12.2583 16.0111" stroke="#848484" stroke-width="1.5" stroke-linecap="round"/>
<path d="M4.75293 8.43602V3.87634C4.75293 3.40494 4.75293 3.16924 4.89938 3.02279C5.04582 2.87634 5.28153 2.87634 5.75293 2.87634H18.7641C19.2355 2.87634 19.4712 2.87634 19.6176 3.02279C19.7641 3.16924 19.7641 3.40494 19.7641 3.87634V9.13098" stroke="#848484" stroke-width="1.5"/>
<path d="M7.87988 2.25093V2C7.87988 1.44772 8.3276 1 8.87988 1H15.6364C16.1887 1 16.6364 1.44772 16.6364 2V2.87639" stroke="#848484" stroke-width="1.5"/>
<path d="M1 19.2832C2.45942 20.5342 5.87862 22.2855 7.8801 19.2832C10.382 15.5305 12.8838 20.5342 16.0111 20.5342C19.1384 20.5342 19.1384 17.4069 22.8912 19.2833" stroke="#848484" stroke-width="1.5" stroke-linecap="round"/>
</svg>
