<svg width="17" height="15" viewBox="0 0 17 15" fill="none" xmlns="http://www.w3.org/2000/svg">
<path d="M3.24694 14.9763C2.38586 14.9763 1.55993 14.6194 0.95105 13.984C0.342174 13.3487 0.000131465 12.487 3.61037e-08 11.5885C-0.000128304 10.6899 0.341911 9.8281 0.950689 9.19261L8.41287 1.40598C9.57493 0.193401 11.2688 -0.280188 12.8561 0.163675C14.4437 0.607504 15.6835 1.90141 16.109 3.55782C16.5343 5.21437 16.0805 6.9817 14.9183 8.19428L12.0501 11.1872C11.9492 11.2961 11.8108 11.3582 11.6656 11.3595C11.5204 11.3609 11.3808 11.3013 11.2782 11.1941C11.1756 11.087 11.1185 10.9414 11.1197 10.79C11.121 10.6385 11.1804 10.4938 11.2849 10.3887L14.1531 7.3958V7.39567C15.0418 6.46834 15.3887 5.11687 15.0634 3.85019C14.7381 2.5835 13.7899 1.59401 12.5758 1.25479C11.3619 0.915417 10.0668 1.27769 9.17809 2.20502L1.71656 9.99096C1.1798 10.5636 0.973823 11.3901 1.17517 12.163C1.37655 12.9359 1.95513 13.5398 2.69583 13.7501C3.43653 13.9604 4.22846 13.7455 4.7774 13.1856L12.2396 5.39894C12.4446 5.18492 12.5246 4.873 12.4494 4.58064C12.3743 4.28828 12.1555 4.06005 11.8753 3.98171C11.5951 3.90349 11.2962 3.9872 11.0911 4.20121L5.15975 10.3905L5.15988 10.3903C5.059 10.4994 4.92051 10.5615 4.77535 10.5628C4.63019 10.564 4.49054 10.5044 4.388 10.3974C4.28532 10.2903 4.2282 10.1447 4.22949 9.99324C4.23077 9.84176 4.2902 9.69712 4.39467 9.59186L10.326 3.4026L10.3259 3.40273C10.8079 2.92218 11.4964 2.7414 12.139 2.92661C12.7815 3.11183 13.2833 3.63591 13.4604 4.30647C13.6377 4.97706 13.4639 5.69545 13.0031 6.19794L5.5426 13.9825C4.93527 14.6205 4.10868 14.9784 3.24697 14.9764L3.24694 14.9763Z" fill="black"/>
</svg>
