<?xml version="1.0"?>
<svg width="17" height="15" xmlns="http://www.w3.org/2000/svg" xmlns:svg="http://www.w3.org/2000/svg">
 <g class="layer">
  <title>Layer 1</title>
  <path d="m3.25,14.98c-0.86,0 -1.69,-0.36 -2.3,-1c-0.61,-0.63 -0.95,-1.49 -0.95,-2.39c0,-0.9 0.34,-1.76 0.95,-2.4l7.46,-7.78c1.16,-1.22 2.86,-1.69 4.45,-1.25c1.58,0.45 2.82,1.74 3.25,3.4c0.42,1.65 -0.03,3.42 -1.19,4.63l-2.87,3c-0.1,0.11 -0.24,0.17 -0.38,0.17c-0.15,0 -0.29,-0.06 -0.39,-0.17c-0.1,-0.1 -0.16,-0.25 -0.16,-0.4c0,-0.15 0.06,-0.3 0.16,-0.4l2.87,-2.99l0,0c0.89,-0.93 1.24,-2.28 0.91,-3.55c-0.32,-1.27 -1.27,-2.26 -2.48,-2.6c-1.22,-0.33 -2.51,0.03 -3.4,0.96l-7.46,7.78c-0.54,0.57 -0.75,1.4 -0.54,2.17c0.2,0.78 0.78,1.38 1.52,1.59c0.74,0.21 1.53,0 2.08,-0.56l7.46,-7.79c0.2,-0.22 0.28,-0.53 0.21,-0.82c-0.08,-0.29 -0.29,-0.52 -0.57,-0.6c-0.28,-0.08 -0.58,0.01 -0.79,0.22l-5.93,6.19l0,0c-0.1,0.11 -0.24,0.17 -0.38,0.17c-0.15,0 -0.29,-0.06 -0.39,-0.16c-0.1,-0.11 -0.16,-0.26 -0.16,-0.41c0,-0.15 0.06,-0.29 0.16,-0.4l5.94,-6.19l0,0c0.48,-0.48 1.17,-0.66 1.81,-0.47c0.64,0.18 1.14,0.71 1.32,1.38c0.18,0.67 0,1.39 -0.46,1.89l-7.46,7.78c-0.6,0.64 -1.43,1 -2.29,1l0,0z" fill="#ffffff" id="svg_1"/>
 </g>
</svg>